0
SECTION
2
HEADER
9
$INSUNITS
70
4
9
$ACADVER
1
AC1014
9
$HANDSEED
5
FFFF
0
ENDSEC
0
SECTION
2
TABLES
0
TABLE
2
VPORT
5
8
100
AcDbSymbolTable
0
ENDTAB
0
TABLE
2
LTYPE
5
5
100
AcDbSymbolTable
0
LTYPE
5
14
100
AcDbSymbolTableRecord
100
AcDbLinetypeTableRecord
2
BYBLOCK
70
0
0
LTYPE
5
15
100
AcDbSymbolTableRecord
100
AcDbLinetypeTableRecord
2
BYLAYER
70
0
0
LTYPE
5
16
100
AcDbSymbolTableRecord
100
AcDbLinetypeTableRecord
2
DASHED
70
0
3
Dashed __ __ __ __ __ __ __ __ __ __ __ __ __ _
72
65
73
2
40
0.75
49
0.5
74
0
49
-0.25
74
0
0
ENDTAB
0
TABLE
2
LAYER
5
2
100
AcDbSymbolTable
70
3
0
LAYER
5
50
100
AcDbSymbolTableRecord
100
AcDbLayerTableRecord
2
1
70
0
62
7
6
DASHED
0
LAYER
5
51
100
AcDbSymbolTableRecord
100
AcDbLayerTableRecord
2
0
70
0
62
7
6
CONTINUOUS
0
ENDTAB
0
TABLE
2
STYLE
5
3
100
AcDbSymbolTable
70
1
0
STYLE
5
11
100
AcDbSymbolTableRecord
100
AcDbTextStyleTableRecord
2
STANDARD
70
0
0
ENDTAB
0
TABLE
2
VIEW
5
6
100
AcDbSymbolTable
70
0
0
ENDTAB
0
TABLE
2
UCS
5
7
100
AcDbSymbolTable
70
0
0
ENDTAB
0
TABLE
2
APPID
5
9
100
AcDbSymbolTable
70
2
0
APPID
5
12
100
AcDbSymbolTableRecord
100
AcDbRegAppTableRecord
2
ACAD
70
0
0
ENDTAB
0
TABLE
2
DIMSTYLE
5
A
100
AcDbSymbolTable
70
1
0
ENDTAB
0
TABLE
2
BLOCK_RECORD
5
1
100
AcDbSymbolTable
70
1
0
BLOCK_RECORD
5
1F
100
AcDbSymbolTableRecord
100
AcDbBlockTableRecord
2
*MODEL_SPACE
0
BLOCK_RECORD
5
1B
100
AcDbSymbolTableRecord
100
AcDbBlockTableRecord
2
*PAPER_SPACE
0
ENDTAB
0
ENDSEC
0
SECTION
2
BLOCKS
0
BLOCK
5
20
100
AcDbEntity
100
AcDbBlockBegin
2
*MODEL_SPACE
0
ENDBLK
5
21
100
AcDbEntity
100
AcDbBlockEnd
0
BLOCK
5
1C
100
AcDbEntity
100
AcDbBlockBegin
2
*PAPER_SPACE
0
ENDBLK
5
1D
100
AcDbEntity
100
AcDbBlockEnd
0
ENDSEC
0
SECTION
2
ENTITIES
0
LWPOLYLINE
5
100
100
AcDbEntity
8
0
100
AcDbPolyline
90
4
70
1
43
0.0
10
-198.3236915199742
20
-111.19587259630678
10
-178.3236915199742
20
-111.19587259630678
10
-178.3236915199742
20
-115.39587259630679
10
-198.3236915199742
20
-115.39587259630679
0
LWPOLYLINE
5
101
100
AcDbEntity
8
0
100
AcDbPolyline
90
4
70
1
43
0.0
10
-123.32369151997419
20
-111.19587259630678
10
-103.32369151997419
20
-111.19587259630678
10
-103.32369151997419
20
-115.39587259630679
10
-123.32369151997419
20
-115.39587259630679
0
LWPOLYLINE
5
102
100
AcDbEntity
8
0
100
AcDbPolyline
90
4
70
1
43
0.0
10
-48.32369151997419
20
-111.19587259630678
10
-28.32369151997419
20
-111.19587259630678
10
-28.32369151997419
20
-115.39587259630679
10
-48.32369151997419
20
-115.39587259630679
0
LWPOLYLINE
5
103
100
AcDbEntity
8
0
100
AcDbPolyline
90
4
70
1
43
0.0
10
-24.53763239344088
20
-53.693070857109021
10
-24.53763239344088
20
-33.693070857109007
10
-20.33763239344087
20
-33.693070857109007
10
-20.33763239344087
20
-53.693070857109007
0
LWPOLYLINE
5
104
100
AcDbEntity
8
0
100
AcDbPolyline
90
4
70
1
43
0.0
10
-24.53763239344088
20
-93.693070857109021
10
-24.53763239344088
20
-73.693070857109007
10
-20.33763239344087
20
-73.693070857109007
10
-20.33763239344087
20
-93.693070857109007
0
LWPOLYLINE
5
105
100
AcDbEntity
8
0
100
AcDbPolyline
90
4
70
1
43
0.0
10
-216.5376323934409
20
-53.693070857109021
10
-216.5376323934409
20
-33.693070857109007
10
-212.33763239344088
20
-33.693070857109007
10
-212.33763239344088
20
-53.693070857109007
0
LWPOLYLINE
5
106
100
AcDbEntity
8
0
100
AcDbPolyline
90
4
70
1
43
0.0
10
-216.5376323934409
20
-93.693070857109021
10
-216.5376323934409
20
-73.693070857109007
10
-212.33763239344088
20
-73.693070857109007
10
-212.33763239344088
20
-93.693070857109007
0
LWPOLYLINE
5
107
100
AcDbEntity
8
0
100
AcDbPolyline
90
8
70
1
43
0.0
10
-30.645034722868555
20
-124.00520391985876
42
0.41421356237309542
10
-10.645034722868566
20
-104.00520391985876
10
-10.645034722868591
20
-19.005504565344289
42
0.41421356237309476
10
-25.645034722868559
20
-4.0055045653443333
10
-210.64509272523435
20
-4.0055045653443404
42
0.41421356237309509
10
-225.64509272523429
20
-19.005504565344303
10
-225.64509272523429
20
-104.00520391985876
42
0.41421356237309553
10
-205.64509272523429
20
-124.00520391985879
0
CIRCLE
5
108
100
AcDbEntity
8
0
100
AcDbCircle
10
-131.69392585020626
20
-42.910937881557558
30
0
40
10
210
0
220
0
230
1
0
CIRCLE
5
109
100
AcDbEntity
8
0
100
AcDbCircle
10
-111.21892288414523
20
-43.183937921105041
30
0
40
10
210
0
220
0
230
1
0
CIRCLE
5
110
100
AcDbEntity
8
0
100
AcDbCircle
10
-158.81768097942231
20
-42.672445047008864
30
0
40
10
210
0
220
0
230
1
0
CIRCLE
5
111
100
AcDbEntity
8
0
100
AcDbCircle
10
-81.552918586652424
20
-42.868495196893051
30
0
40
10
210
0
220
0
230
1
0
CIRCLE
5
112
100
AcDbEntity
8
0
100
AcDbCircle
10
-179.40762720509426
20
-42.94907871708272
30
0
40
10
210
0
220
0
230
1
0
CIRCLE
5
113
100
AcDbEntity
8
0
100
AcDbCircle
10
-60.899324868393741
20
-42.868495196893051
30
0
40
10
210
0
220
0
230
1
0
LWPOLYLINE
5
114
100
AcDbEntity
8
0
100
AcDbPolyline
90
4
70
1
43
0.0
10
-66.817448001081843
20
-99.585143079097023
10
-67.817448001081829
20
-99.585143079097023
10
-67.817448001081829
20
-69.585143079097023
10
-66.817448001081843
20
-69.585143079097023
0
LWPOLYLINE
5
115
100
AcDbEntity
8
0
100
AcDbPolyline
90
4
70
1
43
0.0
10
-88.635629819263642
20
-99.585143079097023
10
-89.635629819263656
20
-99.585143079097023
10
-89.635629819263656
20
-69.585143079097023
10
-88.635629819263642
20
-69.585143079097023
0
LWPOLYLINE
5
116
100
AcDbEntity
8
0
100
AcDbPolyline
90
4
70
1
43
0.0
10
-110.45381163744548
20
-99.585143079097023
10
-111.45381163744545
20
-99.585143079097023
10
-111.45381163744545
20
-69.585143079097023
10
-110.45381163744548
20
-69.585143079097023
0
LWPOLYLINE
5
117
100
AcDbEntity
8
0
100
AcDbPolyline
90
4
70
1
43
0.0
10
-104.99926618290002
20
-99.585143079097023
10
-105.9992661829
20
-99.585143079097023
10
-105.9992661829
20
-69.585143079097023
10
-104.99926618290002
20
-69.585143079097023
0
LWPOLYLINE
5
118
100
AcDbEntity
8
0
100
AcDbPolyline
90
4
70
1
43
0.0
10
-83.181084364718174
20
-99.585143079097023
10
-84.181084364718188
20
-99.585143079097023
10
-84.181084364718188
20
-69.585143079097023
10
-83.181084364718174
20
-69.585143079097023
0
LWPOLYLINE
5
119
100
AcDbEntity
8
0
100
AcDbPolyline
90
4
70
1
43
0.0
10
-61.362902546536375
20
-99.585143079097023
10
-62.362902546536382
20
-99.585143079097023
10
-62.362902546536382
20
-69.585143079097023
10
-61.362902546536375
20
-69.585143079097023
0
LWPOLYLINE
5
120
100
AcDbEntity
8
0
100
AcDbPolyline
90
4
70
1
43
0.0
10
-72.271993455627296
20
-99.585143079097023
10
-73.271993455627296
20
-99.585143079097023
10
-73.271993455627296
20
-69.585143079097023
10
-72.271993455627296
20
-69.585143079097023
0
LWPOLYLINE
5
121
100
AcDbEntity
8
0
100
AcDbPolyline
90
4
70
1
43
0.0
10
-94.090175273809109
20
-99.585143079097023
10
-95.090175273809109
20
-99.585143079097023
10
-95.090175273809109
20
-69.585143079097023
10
-94.090175273809109
20
-69.585143079097023
0
LWPOLYLINE
5
122
100
AcDbEntity
8
0
100
AcDbPolyline
90
4
70
1
43
0.0
10
-115.90835709199092
20
-99.585143079097023
10
-116.90835709199092
20
-99.585143079097023
10
-116.90835709199092
20
-69.585143079097023
10
-115.90835709199092
20
-69.585143079097023
0
LWPOLYLINE
5
123
100
AcDbEntity
8
0
100
AcDbPolyline
90
4
70
1
43
0.0
10
-99.544720728354562
20
-99.585143079097023
10
-100.54472072835455
20
-99.585143079097023
10
-100.54472072835455
20
-69.585143079097023
10
-99.544720728354562
20
-69.585143079097023
0
LWPOLYLINE
5
124
100
AcDbEntity
8
0
100
AcDbPolyline
90
4
70
1
43
0.0
10
-77.726538910172735
20
-99.585143079097023
10
-78.726538910172735
20
-99.585143079097023
10
-78.726538910172735
20
-69.585143079097023
10
-77.726538910172735
20
-69.585143079097023
0
LWPOLYLINE
5
125
100
AcDbEntity
8
0
100
AcDbPolyline
90
4
70
1
43
0.0
10
-56.908357091990922
20
-99.585143079097023
10
-56.908357091990922
20
-69.585143079097023
10
-55.908357091990915
20
-69.585143079097023
10
-55.908357091990915
20
-99.585143079097023
0
LWPOLYLINE
5
126
100
AcDbEntity
8
0
100
AcDbPolyline
90
4
70
1
43
0.0
10
-198.3236915199742
20
-15.595872596306783
10
-198.3236915199742
20
-11.395872596306786
10
-178.3236915199742
20
-11.395872596306786
10
-178.3236915199742
20
-15.595872596306783
0
LWPOLYLINE
5
127
100
AcDbEntity
8
0
100
AcDbPolyline
90
4
70
1
43
0.0
10
-123.32369151997419
20
-15.595872596306783
10
-123.32369151997419
20
-11.395872596306786
10
-103.32369151997419
20
-11.395872596306786
10
-103.32369151997419
20
-15.595872596306783
0
LWPOLYLINE
5
128
100
AcDbEntity
8
0
100
AcDbPolyline
90
4
70
1
43
0.0
10
-48.32369151997419
20
-15.595872596306783
10
-48.32369151997419
20
-11.395872596306786
10
-28.32369151997419
20
-11.395872596306786
10
-28.32369151997419
20
-15.595872596306783
0
CIRCLE
5
129
100
AcDbEntity
8
0
100
AcDbCircle
10
-96.01546346484362
20
-52.518876373686467
30
0
40
3.5000000000000142
210
0
220
-0
230
1
0
CIRCLE
5
130
100
AcDbEntity
8
0
100
AcDbCircle
10
-145.18532910900723
20
-52.408512268721665
30
0
40
3.5000000000000142
210
0
220
-0
230
1
0
LWPOLYLINE
5
131
100
AcDbEntity
8
0
100
AcDbPolyline
90
65
70
1
43
0.0
10
-20.357767874574428
20
-168.23793197089842
10
-20.357707703472492
20
-168.10793198482367
10
-24.318514537581741
20
-168.10609870684453
10
-24.300720508855878
20
-158.10622985058552
10
-20.292625419651351
20
-158.08598227192775
10
-20.33382276878875
20
-148.36587751024641
10
-28.371025026538064
20
-148.36587751024638
10
-28.371025026538071
20
-144.32466459494799
10
-28.421025026538061
20
-144.32466459494799
10
-48.221025026538051
20
-144.34173601214584
10
-48.271025026538048
20
-144.34173601214584
10
-48.271025026538041
20
-148.36979858307689
10
-103.390970088966
20
-148.36979858307689
10
-103.34097054803054
20
-148.36958432565527
10
-103.35850519484106
20
-144.2776640347623
10
-103.40850473577652
20
-144.27787829218394
10
-123.20292112619896
20
-144.31773698769194
10
-123.30291963241295
20
-144.31719040286563
10
-123.32505448647937
20
-148.3667948472405
10
-123.2250559802654
20
-148.36734143206684
10
-178.42100490274356
20
-148.36734143206684
10
-178.37100491978839
20
-148.36730014668544
10
-178.37431939174238
20
-144.35320276758611
10
-178.42431937469755
20
-144.35324405296748
10
-198.20964355228622
20
-144.36061504980864
10
-198.25964349429034
20
-144.36053889482389
10
-198.26574480861521
20
-148.36638780160206
10
-198.21574486661106
20
-148.36646395658678
10
-216.03732816845539
20
-148.36646395658676
10
-216.02887897208205
20
-158.16604743235445
10
-211.99227368782712
20
-158.16142982585257
10
-211.95396851072147
20
-168.16584930155298
10
-216.01113561035109
20
-168.16584930006312
10
-216.01113561041865
20
-168.34984930006311
10
-216.00025145022286
20
-177.99895818670984
10
-211.98943359362897
20
-178.00906340700493
10
-211.98591430976919
20
-188.00948696958355
10
-215.98463026482727
20
-187.99871146854599
10
-215.98522580027156
20
-188.21971066614077
10
-215.98722579839969
20
-188.2197079298069
10
-216.00110859176834
20
-198.36670114537472
10
-215.99910859364019
20
-198.36670388170856
10
-198.29034286972751
20
-198.36670387749922
10
-198.29034286972751
20
-202.37243065174295
10
-178.38041597921648
20
-202.37243065174306
10
-178.38041597920889
20
-198.36670387279199
10
-123.27952820851797
20
-198.36670385978283
10
-123.27952820343214
20
-202.40566775631095
10
-123.22952820343212
20
-202.40566775624799
10
-103.43262616739345
20
-202.46761537555014
10
-103.38262617220406
20
-202.46763730864228
10
-103.3808286161677
20
-198.369820516169
10
-103.43082861135711
20
-198.36979858307689
10
-48.271023983863358
20
-198.36979858307689
10
-48.271023983863365
20
-202.44868394135904
10
-48.221023983863361
20
-202.44868394135904
10
-28.421023983863396
20
-202.46552957783786
10
-28.371023983863395
20
-202.46552957783786
10
-28.371023983863395
20
-198.36587751024638
10
-20.327168952218329
20
-198.36587751024643
10
-20.356110096230541
20
-188.15479636726525
10
-20.356324560313226
20
-187.99579651190322
10
-24.38996825246079
20
-188.00123721933275
10
-24.392121520997783
20
-177.99618512794612
10
-20.337692487680663
20
-177.99603510682294
0
CIRCLE
5
132
100
AcDbEntity
8
0
100
AcDbCircle
10
-38.668443672780768
20
-164.25085171992203
30
0
40
4.0000000000000036
210
0
220
0
230
1
0
CIRCLE
5
133
100
AcDbEntity
8
0
100
AcDbCircle
10
-168.82836514892506
20
-164.47983664628248
30
0
40
3.9999999999999858
210
0
220
0
230
1
0
CIRCLE
5
134
100
AcDbEntity
8
0
100
AcDbCircle
10
-153.9235245507179
20
-164.50392953585003
30
0
40
4.0000000000000036
210
0
220
0
230
1
0
LINE
5
135
100
AcDbEntity
8
0
100
AcDbLine
10
94.088236814959856
20
-33.795703481181931
30
0
11
94.088240068266629
21
-33.750703481299531
31
0
0
LINE
5
136
100
AcDbEntity
8
0
100
AcDbLine
10
94.648240066803197
20
-33.750743966894994
30
0
11
94.088240068266629
21
-33.750703481299531
31
0
0
LINE
5
137
100
AcDbEntity
8
0
100
AcDbLine
10
94.086800000777771
20
-53.669832303770868
30
0
11
94.646799999314268
21
-53.669872789366323
31
0
0
LINE
5
138
100
AcDbEntity
8
0
100
AcDbLine
10
70.96096906851443
20
-16.190021840911101
30
0
11
70.960970961193084
21
-16.190381163973001
31
0
0
LINE
5
139
100
AcDbEntity
8
0
100
AcDbLine
10
70.960970961193084
20
-16.190381163973001
30
0
11
71.010970267586629
21
-16.190117800359619
31
0
0
LINE
5
140
100
AcDbEntity
8
0
100
AcDbLine
10
61.003497071618078
20
-16.170912028768324
30
0
11
70.96096906851443
21
-16.190021840911101
31
0
0
LINE
5
141
100
AcDbEntity
8
0
100
AcDbLine
10
70.989901405477809
20
-12.190216378843765
30
0
11
71.010970267586629
21
-16.190117800359619
31
0
0
LINE
5
142
100
AcDbEntity
8
0
100
AcDbLine
10
70.989901405477809
20
-12.190216378843765
30
0
11
80.889900018240994
21
-12.190216378843948
31
0
0
LINE
5
143
100
AcDbEntity
8
0
100
AcDbLine
10
80.889900018240994
20
-12.190216378843948
30
0
11
80.839900711849737
21
-12.190479742457418
31
0
0
LINE
5
144
100
AcDbEntity
8
0
100
AcDbLine
10
80.839900711849737
20
-12.190479742457418
30
0
11
80.860970512974703
21
-16.190559435630703
31
0
0
LINE
5
145
100
AcDbEntity
8
0
100
AcDbLine
10
80.860970512974703
20
-16.190559435630703
30
0
11
81.010968432150747
21
-16.189769344790207
31
0
0
LINE
5
146
100
AcDbEntity
8
0
100
AcDbLine
10
81.010968432150747
20
-16.189769344790207
30
0
11
90.646811457289687
21
-16.179871136672222
31
0
0
LINE
5
147
100
AcDbEntity
8
0
100
AcDbLine
10
90.64681145728953
20
-33.709595329776292
30
0
11
90.646811457289687
21
-16.179871136672222
31
0
0
LINE
5
148
100
AcDbEntity
8
0
100
AcDbLine
10
90.64681145728953
20
-33.709595329776292
30
0
11
90.647033484554882
21
-33.764594881628071
31
0
0
LINE
5
149
100
AcDbEntity
8
0
100
AcDbLine
10
90.647033484554882
20
-33.764594881628071
30
0
11
94.088055156287922
21
-33.750703847849209
31
0
0
LINE
5
150
100
AcDbEntity
8
0
100
AcDbLine
10
94.088236814959856
20
-33.795703481181931
30
0
11
94.088055156287922
21
-33.750703847849209
31
0
0
LINE
5
151
100
AcDbEntity
8
0
100
AcDbLine
10
94.648240066803197
20
-33.750743966894994
30
0
11
94.646799999314268
21
-53.669872789366323
31
0
0
LINE
5
152
100
AcDbEntity
8
0
100
AcDbLine
10
90.646811457289402
20
-53.664450040564866
30
0
11
94.08665076564202
21
-53.669832181626099
31
0
0
LINE
5
153
100
AcDbEntity
8
0
100
AcDbLine
10
90.646811457289473
20
-73.679730961868756
30
0
11
90.646811457289402
21
-53.664450040564866
31
0
0
LINE
5
154
100
AcDbEntity
8
0
100
AcDbLine
10
90.646811457289473
20
-73.679730961868756
30
0
11
90.646878807392341
21
-73.72973091650843
31
0
0
LINE
5
155
100
AcDbEntity
8
0
100
AcDbLine
10
90.646878807392341
20
-73.72973091650843
30
0
11
94.645313286637034
21
-73.72434501214866
31
0
0
LINE
5
156
100
AcDbEntity
8
0
100
AcDbLine
10
94.645398147766784
20
-73.787344954998389
30
0
11
94.645313286637034
21
-73.72434501214866
31
0
0
LINE
5
157
100
AcDbEntity
8
0
100
AcDbLine
10
94.645398147766784
20
-73.787344954998389
30
0
11
94.641210271611669
21
-87.397158779683863
31
0
0
LINE
5
158
100
AcDbEntity
8
0
100
AcDbLine
10
94.641210271611669
20
-87.397158779683863
30
0
11
94.641210271611556
21
-93.630084006014044
31
0
0
LINE
5
159
100
AcDbEntity
8
0
100
AcDbLine
10
90.653153649136982
20
-93.630084006014101
30
0
11
94.641210271611556
21
-93.630084006014044
31
0
0
LINE
5
160
100
AcDbEntity
8
0
100
AcDbLine
10
90.65315364913701
20
-93.580084006014033
30
0
11
90.653153649136982
21
-93.630084006014101
31
0
0
LINE
5
161
100
AcDbEntity
8
0
100
AcDbLine
10
90.647078224007984
20
-111.79953384693576
30
0
11
90.65315364913701
21
-93.580084006014033
31
0
0
LINE
5
162
100
AcDbEntity
8
0
100
AcDbLine
10
90.647078224007984
20
-111.79953384693576
30
0
11
80.893943338598518
21
-111.80714822589081
31
0
0
LINE
5
163
100
AcDbEntity
8
0
100
AcDbLine
10
80.893943338598518
20
-111.80714822589081
30
0
11
80.843943385637118
21
-111.80707964124187
31
0
0
LINE
5
164
100
AcDbEntity
8
0
100
AcDbLine
10
80.843943385637118
20
-111.80707964124187
30
0
11
80.838456638663146
21
-115.80705769260805
31
0
0
LINE
5
165
100
AcDbEntity
8
0
100
AcDbLine
10
80.838456591624578
20
-115.80712627725708
30
0
11
80.838456591624549
21
-116.00712627725702
31
0
0
LINE
5
166
100
AcDbEntity
8
0
100
AcDbLine
10
70.93845569823479
20
-116.00712627725706
30
0
11
80.838456591624549
21
-116.00712627725702
31
0
0
LINE
5
167
100
AcDbEntity
8
0
100
AcDbLine
10
70.93845569823479
20
-116.00712627725706
30
0
11
70.938455698234847
21
-115.80719471300817
31
0
0
LINE
5
168
100
AcDbEntity
8
0
100
AcDbLine
10
70.938455698234847
20
-115.80719471300817
30
0
11
70.943940909832463
21
-111.79960130953994
31
0
0
LINE
5
169
100
AcDbEntity
8
0
100
AcDbLine
10
70.943940909832463
20
-111.79960130953994
30
0
11
70.893940956666924
21
-111.79953287378885
31
0
0
LINE
5
170
100
AcDbEntity
8
0
100
AcDbLine
10
70.893940956666924
20
-111.79953287378885
30
0
11
61.026912752501019
21
-111.8090338165844
31
0
0
LINE
5
171
100
AcDbEntity
8
0
100
AcDbLine
10
61.026912752501019
20
-111.8090338165844
30
0
11
60.976912762494813
21
-111.80906542961526
31
0
0
LINE
5
172
100
AcDbEntity
8
0
100
AcDbLine
10
60.976912762494813
20
-111.80906542961526
30
0
11
60.979441802307825
21
-115.8090604164498
31
0
0
LINE
5
173
100
AcDbEntity
8
0
100
AcDbLine
10
60.979441802307825
20
-115.8090604164498
30
0
11
60.979441792314006
21
-116.00902880341894
31
0
0
LINE
5
174
100
AcDbEntity
8
0
100
AcDbLine
10
51.079442305729579
20
-116.00902880341891
30
0
11
60.979441792314006
21
-116.00902880341894
31
0
0
LINE
5
175
100
AcDbEntity
8
0
100
AcDbLine
10
51.079442305729579
20
-116.00902880341891
30
0
11
51.079442305729572
21
-115.80902880341888
31
0
0
LINE
5
176
100
AcDbEntity
8
0
100
AcDbLine
10
51.079442295790756
20
-115.80899727595714
30
0
11
51.076914111596196
21
-111.79950277154553
31
0
0
LINE
5
177
100
AcDbEntity
8
0
100
AcDbLine
10
51.076914111596196
20
-111.79950277154553
30
0
11
51.026914121535867
21
-111.79953429900721
31
0
0
LINE
5
178
100
AcDbEntity
8
0
100
AcDbLine
10
51.026914121535867
20
-111.79953429900721
30
0
11
40.646811457289296
21
-111.79953429900721
31
0
0
LINE
5
179
100
AcDbEntity
8
0
100
AcDbLine
10
40.646811457289296
20
-111.79953429900721
30
0
11
40.646811457289402
21
-93.637084006014106
31
0
0
LINE
5
180
100
AcDbEntity
8
0
100
AcDbLine
10
36.647287451473538
20
-93.637084006014035
30
0
11
40.646811457289402
21
-93.637084006014106
31
0
0
LINE
5
181
100
AcDbEntity
8
0
100
AcDbLine
10
36.647287451473538
20
-93.637084006014035
30
0
11
36.64728745147351
21
-73.737084006014143
31
0
0
LINE
5
182
100
AcDbEntity
8
0
100
AcDbLine
10
40.647287451473453
20
-73.737084006014044
30
0
11
36.64728745147351
21
-73.737084006014143
31
0
0
LINE
5
183
100
AcDbEntity
8
0
100
AcDbLine
10
40.647287451473453
20
-73.737084006014044
30
0
11
40.647287451473488
21
-67.597084006014128
31
0
0
LINE
5
184
100
AcDbEntity
8
0
100
AcDbLine
10
40.647097032004154
20
-53.650423402563476
30
0
11
40.647287451473488
21
-67.597084006014128
31
0
0
LINE
5
185
100
AcDbEntity
8
0
100
AcDbLine
10
36.64696755466629
20
-53.650423402574631
30
0
11
40.647097032004154
21
-53.650423402563476
31
0
0
LINE
5
186
100
AcDbEntity
8
0
100
AcDbLine
10
36.64696755466629
20
-53.650423402574631
30
0
11
36.64696755466629
21
-33.746423402574678
31
0
0
LINE
5
187
100
AcDbEntity
8
0
100
AcDbLine
10
40.646811457289509
20
-33.746423402574656
30
0
11
36.64696755466629
21
-33.746423402574678
31
0
0
LINE
5
188
100
AcDbEntity
8
0
100
AcDbLine
10
40.6468114572898
20
-16.179868077571236
30
0
11
40.646811457289509
21
-33.746423402574656
31
0
0
LINE
5
189
100
AcDbEntity
8
0
100
AcDbLine
10
40.6468114572898
20
-16.179868077571236
30
0
11
51.002282030843602
21
-16.170842573500597
31
0
0
LINE
5
190
100
AcDbEntity
8
0
100
AcDbLine
10
51.002282030843602
20
-16.170842573500597
30
0
11
51.102282006645616
21
-16.170773006093452
31
0
0
LINE
5
191
100
AcDbEntity
8
0
100
AcDbLine
10
51.102282006645616
20
-16.170773006093452
30
0
11
51.099495252613494
21
-12.164941148450765
31
0
0
LINE
5
192
100
AcDbEntity
8
0
100
AcDbLine
10
51.099495252613494
20
-12.164941148450765
30
0
11
61.000450671913562
21
-12.170858941624793
31
0
0
LINE
5
193
100
AcDbEntity
8
0
100
AcDbLine
10
61.000450671913562
20
-12.170858941624793
30
0
11
61.000570211733006
21
-11.970858977349206
31
0
0
LINE
5
194
100
AcDbEntity
8
0
100
AcDbLine
10
61.003497071618078
20
-16.170912028768324
30
0
11
61.000570211733006
21
-11.970858977349206
31
0
0
LWPOLYLINE
5
195
100
AcDbEntity
8
0
100
AcDbPolyline
90
4
70
1
43
0.0
10
-178.3236915199742
20
-115.39587259630679
10
-198.3236915199742
20
-115.39587259630679
10
-198.3236915199742
20
-111.19587259630677
10
-178.3236915199742
20
-111.19587259630678
0
LWPOLYLINE
5
196
100
AcDbEntity
8
0
100
AcDbPolyline
90
4
70
1
43
0.0
10
-103.32369151997419
20
-115.39587259630679
10
-123.32369151997419
20
-115.39587259630679
10
-123.32369151997419
20
-111.19587259630677
10
-103.32369151997419
20
-111.19587259630678
0
LWPOLYLINE
5
197
100
AcDbEntity
8
0
100
AcDbPolyline
90
4
70
1
43
0.0
10
-28.32369151997419
20
-115.39587259630679
10
-48.32369151997419
20
-115.39587259630679
10
-48.32369151997419
20
-111.19587259630677
10
-28.32369151997419
20
-111.19587259630678
0
LWPOLYLINE
5
198
100
AcDbEntity
8
0
100
AcDbPolyline
90
4
70
1
43
0.0
10
-67.817448001081829
20
-99.585143079097023
10
-66.817448001081843
20
-99.585143079097023
10
-66.817448001081843
20
-69.585143079097023
10
-67.817448001081843
20
-69.585143079097023
0
LWPOLYLINE
5
199
100
AcDbEntity
8
0
100
AcDbPolyline
90
4
70
1
43
0.0
10
-89.635629819263656
20
-99.585143079097023
10
-88.635629819263642
20
-99.585143079097023
10
-88.635629819263642
20
-69.585143079097023
10
-89.635629819263656
20
-69.585143079097023
0
LWPOLYLINE
5
200
100
AcDbEntity
8
0
100
AcDbPolyline
90
4
70
1
43
0.0
10
-111.45381163744545
20
-99.585143079097023
10
-110.45381163744548
20
-99.585143079097023
10
-110.45381163744545
20
-69.585143079097023
10
-111.45381163744545
20
-69.585143079097023
0
LWPOLYLINE
5
201
100
AcDbEntity
8
0
100
AcDbPolyline
90
4
70
1
43
0.0
10
-105.9992661829
20
-99.585143079097023
10
-104.99926618290002
20
-99.585143079097023
10
-104.99926618289999
20
-69.585143079097023
10
-105.9992661829
20
-69.585143079097023
0
LWPOLYLINE
5
202
100
AcDbEntity
8
0
100
AcDbPolyline
90
4
70
1
43
0.0
10
-84.181084364718188
20
-99.585143079097023
10
-83.181084364718188
20
-99.585143079097023
10
-83.181084364718174
20
-69.585143079097023
10
-84.181084364718188
20
-69.585143079097023
0
LWPOLYLINE
5
203
100
AcDbEntity
8
0
100
AcDbPolyline
90
4
70
1
43
0.0
10
-62.362902546536375
20
-99.585143079097023
10
-61.362902546536375
20
-99.585143079097023
10
-61.362902546536375
20
-69.585143079097023
10
-62.362902546536375
20
-69.585143079097023
0
LWPOLYLINE
5
204
100
AcDbEntity
8
0
100
AcDbPolyline
90
4
70
1
43
0.0
10
-73.271993455627296
20
-99.585143079097023
10
-72.271993455627296
20
-99.585143079097023
10
-72.27199345562731
20
-69.585143079097023
10
-73.271993455627296
20
-69.585143079097023
0
LWPOLYLINE
5
205
100
AcDbEntity
8
0
100
AcDbPolyline
90
4
70
1
43
0.0
10
-95.090175273809109
20
-99.585143079097023
10
-94.090175273809109
20
-99.585143079097023
10
-94.090175273809109
20
-69.585143079097023
10
-95.090175273809109
20
-69.585143079097023
0
LWPOLYLINE
5
206
100
AcDbEntity
8
0
100
AcDbPolyline
90
4
70
1
43
0.0
10
-116.90835709199092
20
-99.585143079097023
10
-115.90835709199092
20
-99.585143079097023
10
-115.90835709199091
20
-69.585143079097023
10
-116.90835709199092
20
-69.585143079097023
0
LWPOLYLINE
5
207
100
AcDbEntity
8
0
100
AcDbPolyline
90
4
70
1
43
0.0
10
-100.54472072835455
20
-99.585143079097023
10
-99.544720728354562
20
-99.585143079097023
10
-99.544720728354577
20
-69.585143079097023
10
-100.54472072835455
20
-69.585143079097023
0
LWPOLYLINE
5
208
100
AcDbEntity
8
0
100
AcDbPolyline
90
4
70
1
43
0.0
10
-78.726538910172735
20
-99.585143079097023
10
-77.726538910172735
20
-99.585143079097023
10
-77.726538910172735
20
-69.585143079097023
10
-78.726538910172735
20
-69.585143079097023
0
LWPOLYLINE
5
209
100
AcDbEntity
8
0
100
AcDbPolyline
90
4
70
1
43
0.0
10
-56.908357091990922
20
-69.585143079097023
10
-56.908357091990922
20
-99.585143079097023
10
-55.908357091990922
20
-99.585143079097023
10
-55.908357091990908
20
-69.585143079097023
0
LWPOLYLINE
5
210
100
AcDbEntity
8
0
100
AcDbPolyline
90
4
70
1
43
0.0
10
-198.3236915199742
20
-11.395872596306788
10
-198.3236915199742
20
-15.595872596306783
10
-178.3236915199742
20
-15.595872596306783
10
-178.3236915199742
20
-11.395872596306788
0
LWPOLYLINE
5
211
100
AcDbEntity
8
0
100
AcDbPolyline
90
4
70
1
43
0.0
10
-123.32369151997419
20
-11.395872596306788
10
-123.32369151997419
20
-15.595872596306783
10
-103.32369151997419
20
-15.595872596306783
10
-103.32369151997419
20
-11.395872596306788
0
LWPOLYLINE
5
212
100
AcDbEntity
8
0
100
AcDbPolyline
90
4
70
1
43
0.0
10
-48.32369151997419
20
-11.395872596306788
10
-48.32369151997419
20
-15.595872596306783
10
-28.32369151997419
20
-15.595872596306783
10
-28.32369151997419
20
-11.395872596306788
0
CIRCLE
5
213
100
AcDbEntity
8
0
100
AcDbCircle
10
-145.18532910900723
20
-52.408512268721665
30
0
40
3.5000000000000142
210
0
220
0
230
1
0
CIRCLE
5
214
100
AcDbEntity
8
0
100
AcDbCircle
10
-96.01546346484362
20
-52.518876373686467
30
0
40
3.5000000000000142
210
0
220
0
230
1
0
CIRCLE
5
215
100
AcDbEntity
8
0
100
AcDbCircle
10
-60.899324868393741
20
-42.868495196893051
30
0
40
10
210
0
220
0
230
1
0
CIRCLE
5
216
100
AcDbEntity
8
0
100
AcDbCircle
10
-179.40762720509426
20
-42.94907871708272
30
0
40
10
210
0
220
0
230
1
0
CIRCLE
5
217
100
AcDbEntity
8
0
100
AcDbCircle
10
-81.552918586652424
20
-42.868495196893051
30
0
40
10
210
0
220
0
230
1
0
CIRCLE
5
218
100
AcDbEntity
8
0
100
AcDbCircle
10
-158.81768097942231
20
-42.672445047008864
30
0
40
10
210
0
220
0
230
1
0
CIRCLE
5
219
100
AcDbEntity
8
0
100
AcDbCircle
10
-111.21892288414523
20
-43.183937921105041
30
0
40
10
210
0
220
0
230
1
0
CIRCLE
5
220
100
AcDbEntity
8
0
100
AcDbCircle
10
-131.69392585020626
20
-42.910937881557558
30
0
40
10
210
0
220
0
230
1
0
LWPOLYLINE
5
221
100
AcDbEntity
8
0
100
AcDbPolyline
90
8
70
1
43
0.0
10
-30.645034722868566
20
-124.00520391985876
42
0.41421356237309515
10
-10.645034722868555
20
-104.00520391985876
10
-10.645034722868596
20
-19.005504565344289
42
0.4142135623730947
10
-25.645034722868552
20
-4.0055045653443377
10
-210.64509272523438
20
-4.0055045653443351
42
0.41421356237309442
10
-225.64509272523429
20
-19.005504565344307
10
-225.64509272523429
20
-104.00520391985876
42
0.41421356237309503
10
-205.64509272523429
20
-124.00520391985876
0
LWPOLYLINE
5
222
100
AcDbEntity
8
0
100
AcDbPolyline
90
4
70
1
43
0.0
10
-216.53763239344096
20
-73.693070857109007
10
-216.53763239344096
20
-93.693070857109021
10
-212.33763239344088
20
-93.693070857109007
10
-212.33763239344091
20
-73.693070857109007
0
LWPOLYLINE
5
223
100
AcDbEntity
8
0
100
AcDbPolyline
90
4
70
1
43
0.0
10
-216.53763239344096
20
-33.693070857109007
10
-216.53763239344096
20
-53.693070857109021
10
-212.33763239344088
20
-53.693070857109007
10
-212.33763239344091
20
-33.693070857109007
0
LWPOLYLINE
5
224
100
AcDbEntity
8
0
100
AcDbPolyline
90
4
70
1
43
0.0
10
-24.53763239344088
20
-73.693070857109007
10
-24.537632393440877
20
-93.693070857109021
10
-20.337632393440881
20
-93.693070857109007
10
-20.337632393440863
20
-73.693070857109007
0
LWPOLYLINE
5
225
100
AcDbEntity
8
0
100
AcDbPolyline
90
4
70
1
43
0.0
10
-24.537632393440884
20
-33.693070857109007
10
-24.53763239344088
20
-53.693070857109021
10
-20.337632393440881
20
-53.693070857109007
10
-20.337632393440863
20
-33.693070857109007
0
LINE
5
226
100
AcDbEntity
8
0
100
AcDbLine
10
-255.91176318504014
20
-33.795703481181931
30
0
11
-255.91175993173337
21
-33.750703481299531
31
0
0
LINE
5
227
100
AcDbEntity
8
0
100
AcDbLine
10
-255.3517599331968
20
-33.750743966894994
30
0
11
-255.91175993173337
21
-33.750703481299531
31
0
0
LINE
5
228
100
AcDbEntity
8
0
100
AcDbLine
10
-255.91319999922223
20
-53.669832303770868
30
0
11
-255.35320000068572
21
-53.669872789366323
31
0
0
LINE
5
229
100
AcDbEntity
8
0
100
AcDbLine
10
-279.03903093148557
20
-16.190021840911101
30
0
11
-279.03902903880692
21
-16.190381163973001
31
0
0
LINE
5
230
100
AcDbEntity
8
0
100
AcDbLine
10
-279.03902903880692
20
-16.190381163973001
30
0
11
-278.98902973241337
21
-16.190117800359619
31
0
0
LINE
5
231
100
AcDbEntity
8
0
100
AcDbLine
10
-288.99650292838191
20
-16.170912028768324
30
0
11
-279.03903093148557
21
-16.190021840911101
31
0
0
LINE
5
232
100
AcDbEntity
8
0
100
AcDbLine
10
-279.01009859452222
20
-12.190216378843765
30
0
11
-278.98902973241337
21
-16.190117800359619
31
0
0
LINE
5
233
100
AcDbEntity
8
0
100
AcDbLine
10
-279.01009859452222
20
-12.190216378843765
30
0
11
-269.11009998175899
21
-12.190216378843948
31
0
0
LINE
5
234
100
AcDbEntity
8
0
100
AcDbLine
10
-269.11009998175899
20
-12.190216378843948
30
0
11
-269.16009928815026
21
-12.190479742457418
31
0
0
LINE
5
235
100
AcDbEntity
8
0
100
AcDbLine
10
-269.16009928815026
20
-12.190479742457418
30
0
11
-269.13902948702525
21
-16.190559435630703
31
0
0
LINE
5
236
100
AcDbEntity
8
0
100
AcDbLine
10
-269.13902948702525
20
-16.190559435630703
30
0
11
-268.98903156784922
21
-16.189769344790207
31
0
0
LINE
5
237
100
AcDbEntity
8
0
100
AcDbLine
10
-268.98903156784922
20
-16.189769344790207
30
0
11
-259.35318854271031
21
-16.179871136672222
31
0
0
LINE
5
238
100
AcDbEntity
8
0
100
AcDbLine
10
-259.35318854271048
20
-33.709595329776292
30
0
11
-259.35318854271031
21
-16.179871136672222
31
0
0
LINE
5
239
100
AcDbEntity
8
0
100
AcDbLine
10
-259.35318854271048
20
-33.709595329776292
30
0
11
-259.35296651544513
21
-33.764594881628071
31
0
0
LINE
5
240
100
AcDbEntity
8
0
100
AcDbLine
10
-259.35296651544513
20
-33.764594881628071
30
0
11
-255.91194484371209
21
-33.750703847849209
31
0
0
LINE
5
241
100
AcDbEntity
8
0
100
AcDbLine
10
-255.91176318504014
20
-33.795703481181931
30
0
11
-255.91194484371209
21
-33.750703847849209
31
0
0
LINE
5
242
100
AcDbEntity
8
0
100
AcDbLine
10
-255.3517599331968
20
-33.750743966894994
30
0
11
-255.35320000068572
21
-53.669872789366323
31
0
0
LINE
5
243
100
AcDbEntity
8
0
100
AcDbLine
10
-259.3531885427106
20
-53.664450040564866
30
0
11
-255.91334923435798
21
-53.669832181626099
31
0
0
LINE
5
244
100
AcDbEntity
8
0
100
AcDbLine
10
-259.35318854271054
20
-73.679730961868756
30
0
11
-259.3531885427106
21
-53.664450040564866
31
0
0
LINE
5
245
100
AcDbEntity
8
0
100
AcDbLine
10
-259.35318854271054
20
-73.679730961868756
30
0
11
-259.35312119260766
21
-73.72973091650843
31
0
0
LINE
5
246
100
AcDbEntity
8
0
100
AcDbLine
10
-259.35312119260766
20
-73.72973091650843
30
0
11
-255.35468671336298
21
-73.72434501214866
31
0
0
LINE
5
247
100
AcDbEntity
8
0
100
AcDbLine
10
-255.3546018522332
20
-73.787344954998389
30
0
11
-255.35468671336298
21
-73.72434501214866
31
0
0
LINE
5
248
100
AcDbEntity
8
0
100
AcDbLine
10
-255.3546018522332
20
-73.787344954998389
30
0
11
-255.35878972838833
21
-87.397158779683863
31
0
0
LINE
5
249
100
AcDbEntity
8
0
100
AcDbLine
10
-255.35878972838833
20
-87.397158779683863
30
0
11
-255.35878972838844
21
-93.630084006014044
31
0
0
LINE
5
250
100
AcDbEntity
8
0
100
AcDbLine
10
-259.34684635086302
20
-93.630084006014101
30
0
11
-255.35878972838844
21
-93.630084006014044
31
0
0
LINE
5
251
100
AcDbEntity
8
0
100
AcDbLine
10
-259.34684635086296
20
-93.580084006014033
30
0
11
-259.34684635086302
21
-93.630084006014101
31
0
0
LINE
5
252
100
AcDbEntity
8
0
100
AcDbLine
10
-259.352921775992
20
-111.79953384693576
30
0
11
-259.34684635086296
21
-93.580084006014033
31
0
0
LINE
5
253
100
AcDbEntity
8
0
100
AcDbLine
10
-259.352921775992
20
-111.79953384693576
30
0
11
-269.10605666140151
21
-111.80714822589081
31
0
0
LINE
5
254
100
AcDbEntity
8
0
100
AcDbLine
10
-269.10605666140151
20
-111.80714822589081
30
0
11
-269.15605661436291
21
-111.80707964124187
31
0
0
LINE
5
255
100
AcDbEntity
8
0
100
AcDbLine
10
-269.15605661436291
20
-111.80707964124187
30
0
11
-269.16154336133684
21
-115.80705769260805
31
0
0
LINE
5
256
100
AcDbEntity
8
0
100
AcDbLine
10
-269.16154340837545
20
-115.80712627725708
30
0
11
-269.16154340837545
21
-116.00712627725702
31
0
0
LINE
5
257
100
AcDbEntity
8
0
100
AcDbLine
10
-279.0615443017652
20
-116.00712627725706
30
0
11
-269.16154340837545
21
-116.00712627725702
31
0
0
LINE
5
258
100
AcDbEntity
8
0
100
AcDbLine
10
-279.0615443017652
20
-116.00712627725706
30
0
11
-279.06154430176514
21
-115.80719471300817
31
0
0
LINE
5
259
100
AcDbEntity
8
0
100
AcDbLine
10
-279.06154430176514
20
-115.80719471300817
30
0
11
-279.05605909016754
21
-111.79960130953994
31
0
0
LINE
5
260
100
AcDbEntity
8
0
100
AcDbLine
10
-279.05605909016754
20
-111.79960130953994
30
0
11
-279.10605904333306
21
-111.79953287378885
31
0
0
LINE
5
261
100
AcDbEntity
8
0
100
AcDbLine
10
-279.10605904333306
20
-111.79953287378885
30
0
11
-288.973087247499
21
-111.8090338165844
31
0
0
LINE
5
262
100
AcDbEntity
8
0
100
AcDbLine
10
-288.973087247499
20
-111.8090338165844
30
0
11
-289.02308723750519
21
-111.80906542961526
31
0
0
LINE
5
263
100
AcDbEntity
8
0
100
AcDbLine
10
-289.02308723750519
20
-111.80906542961526
30
0
11
-289.02055819769214
21
-115.8090604164498
31
0
0
LINE
5
264
100
AcDbEntity
8
0
100
AcDbLine
10
-289.02055819769214
20
-115.8090604164498
30
0
11
-289.02055820768601
21
-116.00902880341894
31
0
0
LINE
5
265
100
AcDbEntity
8
0
100
AcDbLine
10
-298.92055769427043
20
-116.00902880341891
30
0
11
-289.02055820768601
21
-116.00902880341894
31
0
0
LINE
5
266
100
AcDbEntity
8
0
100
AcDbLine
10
-298.92055769427043
20
-116.00902880341891
30
0
11
-298.92055769427043
21
-115.80902880341888
31
0
0
LINE
5
267
100
AcDbEntity
8
0
100
AcDbLine
10
-298.92055770420927
20
-115.80899727595714
30
0
11
-298.92308588840376
21
-111.79950277154553
31
0
0
LINE
5
268
100
AcDbEntity
8
0
100
AcDbLine
10
-298.92308588840376
20
-111.79950277154553
30
0
11
-298.97308587846413
21
-111.79953429900721
31
0
0
LINE
5
269
100
AcDbEntity
8
0
100
AcDbLine
10
-298.97308587846413
20
-111.79953429900721
30
0
11
-309.35318854271071
21
-111.79953429900721
31
0
0
LINE
5
270
100
AcDbEntity
8
0
100
AcDbLine
10
-309.35318854271071
20
-111.79953429900721
30
0
11
-309.3531885427106
21
-93.637084006014106
31
0
0
LINE
5
271
100
AcDbEntity
8
0
100
AcDbLine
10
-313.35271254852648
20
-93.637084006014035
30
0
11
-309.3531885427106
21
-93.637084006014106
31
0
0
LINE
5
272
100
AcDbEntity
8
0
100
AcDbLine
10
-313.35271254852648
20
-93.637084006014035
30
0
11
-313.35271254852648
21
-73.737084006014143
31
0
0
LINE
5
273
100
AcDbEntity
8
0
100
AcDbLine
10
-309.35271254852654
20
-73.737084006014044
30
0
11
-313.35271254852648
21
-73.737084006014143
31
0
0
LINE
5
274
100
AcDbEntity
8
0
100
AcDbLine
10
-309.35271254852654
20
-73.737084006014044
30
0
11
-309.35271254852648
21
-67.597084006014128
31
0
0
LINE
5
275
100
AcDbEntity
8
0
100
AcDbLine
10
-309.35290296799587
20
-53.650423402563476
30
0
11
-309.35271254852648
21
-67.597084006014128
31
0
0
LINE
5
276
100
AcDbEntity
8
0
100
AcDbLine
10
-313.35303244533372
20
-53.650423402574631
30
0
11
-309.35290296799587
21
-53.650423402563476
31
0
0
LINE
5
277
100
AcDbEntity
8
0
100
AcDbLine
10
-313.35303244533372
20
-53.650423402574631
30
0
11
-313.35303244533372
21
-33.746423402574678
31
0
0
LINE
5
278
100
AcDbEntity
8
0
100
AcDbLine
10
-309.35318854271048
20
-33.746423402574656
30
0
11
-313.35303244533372
21
-33.746423402574678
31
0
0
LINE
5
279
100
AcDbEntity
8
0
100
AcDbLine
10
-309.3531885427102
20
-16.179868077571236
30
0
11
-309.35318854271048
21
-33.746423402574656
31
0
0
LINE
5
280
100
AcDbEntity
8
0
100
AcDbLine
10
-309.3531885427102
20
-16.179868077571236
30
0
11
-298.99771796915638
21
-16.170842573500597
31
0
0
LINE
5
281
100
AcDbEntity
8
0
100
AcDbLine
10
-298.99771796915638
20
-16.170842573500597
30
0
11
-298.89771799335438
21
-16.170773006093452
31
0
0
LINE
5
282
100
AcDbEntity
8
0
100
AcDbLine
10
-298.89771799335438
20
-16.170773006093452
30
0
11
-298.90050474738649
21
-12.164941148450765
31
0
0
LINE
5
283
100
AcDbEntity
8
0
100
AcDbLine
10
-298.90050474738649
20
-12.164941148450765
30
0
11
-288.99954932808646
21
-12.170858941624793
31
0
0
LINE
5
284
100
AcDbEntity
8
0
100
AcDbLine
10
-288.99954932808646
20
-12.170858941624793
30
0
11
-288.99942978826698
21
-11.970858977349206
31
0
0
LINE
5
285
100
AcDbEntity
8
0
100
AcDbLine
10
-288.99650292838191
20
-16.170912028768324
30
0
11
-288.99942978826698
21
-11.970858977349206
31
0
0
CIRCLE
5
286
100
AcDbEntity
8
0
100
AcDbCircle
10
-273.9406033896766
20
-34.451301348065009
30
0
40
3.0000000000000071
210
0
220
0
230
1
0
CIRCLE
5
287
100
AcDbEntity
8
0
100
AcDbCircle
10
-274.02829043188871
20
-64.056583941528487
30
0
40
3.5000000000000142
210
0
220
0
230
1
0
CIRCLE
5
288
100
AcDbEntity
8
0
100
AcDbCircle
10
-274.02828889728733
20
-48.770066219569124
30
0
40
3.5000000000000142
210
0
220
0
230
1
0
CIRCLE
5
289
100
AcDbEntity
8
0
100
AcDbCircle
10
-274.02828966458793
20
-80.498455711313824
30
0
40
3.5000000000000142
210
0
220
0
230
1
0
LWPOLYLINE
5
290
100
AcDbEntity
8
0
100
AcDbPolyline
90
4
70
1
43
0.0
10
-508.3236915199742
20
-115.39587259630679
10
-528.3236915199742
20
-115.39587259630679
10
-528.3236915199742
20
-111.19587259630677
10
-508.3236915199742
20
-111.19587259630678
0
LWPOLYLINE
5
291
100
AcDbEntity
8
0
100
AcDbPolyline
90
4
70
1
43
0.0
10
-433.3236915199742
20
-115.39587259630679
10
-453.3236915199742
20
-115.39587259630679
10
-453.3236915199742
20
-111.19587259630677
10
-433.3236915199742
20
-111.19587259630678
0
LWPOLYLINE
5
292
100
AcDbEntity
8
0
100
AcDbPolyline
90
4
70
1
43
0.0
10
-358.3236915199742
20
-115.39587259630679
10
-378.3236915199742
20
-115.39587259630679
10
-378.3236915199742
20
-111.19587259630677
10
-358.3236915199742
20
-111.19587259630678
0
LWPOLYLINE
5
293
100
AcDbEntity
8
0
100
AcDbPolyline
90
4
70
1
43
0.0
10
-397.81744800108186
20
-99.585143079097023
10
-396.81744800108186
20
-99.585143079097023
10
-396.81744800108186
20
-69.585143079097023
10
-397.81744800108186
20
-69.585143079097023
0
LWPOLYLINE
5
294
100
AcDbEntity
8
0
100
AcDbPolyline
90
4
70
1
43
0.0
10
-419.63562981926373
20
-99.585143079097023
10
-418.63562981926361
20
-99.585143079097023
10
-418.63562981926361
20
-69.585143079097023
10
-419.63562981926367
20
-69.585143079097023
0
LWPOLYLINE
5
295
100
AcDbEntity
8
0
100
AcDbPolyline
90
4
70
1
43
0.0
10
-441.45381163744548
20
-99.585143079097023
10
-440.45381163744548
20
-99.585143079097023
10
-440.45381163744543
20
-69.585143079097023
10
-441.45381163744548
20
-69.585143079097023
0
LWPOLYLINE
5
296
100
AcDbEntity
8
0
100
AcDbPolyline
90
4
70
1
43
0.0
10
-435.99926618289999
20
-99.585143079097023
10
-434.99926618290004
20
-99.585143079097023
10
-434.99926618289999
20
-69.585143079097023
10
-435.99926618289999
20
-69.585143079097023
0
LWPOLYLINE
5
297
100
AcDbEntity
8
0
100
AcDbPolyline
90
4
70
1
43
0.0
10
-414.18108436471812
20
-99.585143079097023
10
-413.18108436471817
20
-99.585143079097023
10
-413.18108436471817
20
-69.585143079097023
10
-414.18108436471817
20
-69.585143079097023
0
LWPOLYLINE
5
298
100
AcDbEntity
8
0
100
AcDbPolyline
90
4
70
1
43
0.0
10
-392.36290254653636
20
-99.585143079097023
10
-391.36290254653636
20
-99.585143079097023
10
-391.36290254653636
20
-69.585143079097023
10
-392.36290254653636
20
-69.585143079097023
0
LWPOLYLINE
5
299
100
AcDbEntity
8
0
100
AcDbPolyline
90
4
70
1
43
0.0
10
-403.27199345562735
20
-99.585143079097023
10
-402.2719934556273
20
-99.585143079097023
10
-402.2719934556273
20
-69.585143079097023
10
-403.27199345562735
20
-69.585143079097023
0
LWPOLYLINE
5
300
100
AcDbEntity
8
0
100
AcDbPolyline
90
4
70
1
43
0.0
10
-425.09017527380905
20
-99.585143079097023
10
-424.09017527380911
20
-99.585143079097023
10
-424.09017527380911
20
-69.585143079097023
10
-425.09017527380911
20
-69.585143079097023
0
LWPOLYLINE
5
301
100
AcDbEntity
8
0
100
AcDbPolyline
90
4
70
1
43
0.0
10
-446.90835709199092
20
-99.585143079097023
10
-445.90835709199092
20
-99.585143079097023
10
-445.90835709199092
20
-69.585143079097023
10
-446.90835709199092
20
-69.585143079097023
0
LWPOLYLINE
5
302
100
AcDbEntity
8
0
100
AcDbPolyline
90
4
70
1
43
0.0
10
-430.5447207283546
20
-99.585143079097023
10
-429.5447207283546
20
-99.585143079097023
10
-429.5447207283546
20
-69.585143079097023
10
-430.54472072835449
20
-69.585143079097023
0
LWPOLYLINE
5
303
100
AcDbEntity
8
0
100
AcDbPolyline
90
4
70
1
43
0.0
10
-408.72653891017274
20
-99.585143079097023
10
-407.72653891017274
20
-99.585143079097023
10
-407.72653891017274
20
-69.585143079097023
10
-408.72653891017274
20
-69.585143079097023
0
LWPOLYLINE
5
304
100
AcDbEntity
8
0
100
AcDbPolyline
90
4
70
1
43
0.0
10
-386.90835709199092
20
-69.585143079097023
10
-386.90835709199092
20
-99.585143079097023
10
-385.90835709199092
20
-99.585143079097023
10
-385.90835709199092
20
-69.585143079097023
0
LWPOLYLINE
5
305
100
AcDbEntity
8
0
100
AcDbPolyline
90
4
70
1
43
0.0
10
-528.3236915199742
20
-11.395872596306788
10
-528.3236915199742
20
-15.595872596306783
10
-508.3236915199742
20
-15.595872596306783
10
-508.3236915199742
20
-11.395872596306788
0
LWPOLYLINE
5
306
100
AcDbEntity
8
0
100
AcDbPolyline
90
4
70
1
43
0.0
10
-453.3236915199742
20
-11.395872596306788
10
-453.3236915199742
20
-15.595872596306783
10
-433.3236915199742
20
-15.595872596306783
10
-433.3236915199742
20
-11.395872596306788
0
LWPOLYLINE
5
307
100
AcDbEntity
8
0
100
AcDbPolyline
90
4
70
1
43
0.0
10
-378.3236915199742
20
-11.395872596306788
10
-378.3236915199742
20
-15.595872596306783
10
-358.3236915199742
20
-15.595872596306783
10
-358.3236915199742
20
-11.395872596306788
0
CIRCLE
5
308
100
AcDbEntity
8
0
100
AcDbCircle
10
-369.81449856965611
20
-99.670199105505674
30
0
40
1.4999999999999991
210
0
220
0
230
1
0
CIRCLE
5
309
100
AcDbEntity
8
0
100
AcDbCircle
10
-369.83875519872777
20
-32.335076067436667
30
0
40
1.4999999999999991
210
0
220
0
230
1
0
CIRCLE
5
310
100
AcDbEntity
8
0
100
AcDbCircle
10
-529.86269643058097
20
-99.388465362319366
30
0
40
1.5000000000000213
210
0
220
0
230
1
0
CIRCLE
5
311
100
AcDbEntity
8
0
100
AcDbCircle
10
-530.10968236411895
20
-32.332486525870266
30
0
40
1.4999999999999858
210
0
220
0
230
1
0
LWPOLYLINE
5
312
100
AcDbEntity
8
0
100
AcDbPolyline
90
8
70
1
43
0.0
10
-360.64503472286856
20
-124.00520391985876
42
0.41421356237309503
10
-340.64503472286856
20
-104.00520391985876
10
-340.64503472286856
20
-19.005504565344289
42
0.41421356237309492
10
-355.64503472286856
20
-4.0055045653443377
10
-540.64509272523435
20
-4.0055045653443377
42
0.41421356237309515
10
-555.64509272523435
20
-19.005504565344307
10
-555.64509272523435
20
-104.00520391985876
42
0.41421356237309503
10
-535.64509272523435
20
-124.00520391985876
0
LWPOLYLINE
5
313
100
AcDbEntity
8
0
100
AcDbPolyline
90
4
70
1
43
0.0
10
-546.53763239344096
20
-73.693070857109007
10
-546.53763239344096
20
-93.693070857109021
10
-542.3376323934408
20
-93.693070857109007
10
-542.33763239344091
20
-73.693070857109007
0
LWPOLYLINE
5
314
100
AcDbEntity
8
0
100
AcDbPolyline
90
4
70
1
43
0.0
10
-546.53763239344096
20
-33.693070857109007
10
-546.53763239344096
20
-53.693070857109021
10
-542.33763239344091
20
-53.693070857109007
10
-542.33763239344091
20
-33.693070857109007
0
LWPOLYLINE
5
315
100
AcDbEntity
8
0
100
AcDbPolyline
90
4
70
1
43
0.0
10
-354.53763239344084
20
-73.693070857109007
10
-354.53763239344084
20
-93.693070857109021
10
-350.33763239344091
20
-93.693070857109007
10
-350.3376323934408
20
-73.693070857109007
0
LWPOLYLINE
5
316
100
AcDbEntity
8
0
100
AcDbPolyline
90
4
70
1
43
0.0
10
-354.53763239344084
20
-33.693070857109007
10
-354.53763239344084
20
-53.693070857109021
10
-350.3376323934408
20
-53.693070857109007
10
-350.3376323934408
20
-33.693070857109007
0
LWPOLYLINE
5
317
100
AcDbEntity
8
0
100
AcDbPolyline
90
65
70
1
43
0.0
10
-20.357767874574428
20
61.762068029101584
10
-20.357707703472492
20
61.892068015176349
10
-24.318514537581741
20
61.89390129315548
10
-24.300720508855878
20
71.893770149414493
10
-20.292625419651351
20
71.914017728072267
10
-20.33382276878875
20
81.634122489753594
10
-28.371025026538064
20
81.634122489753622
10
-28.371025026538071
20
85.675335405052024
10
-28.421025026538061
20
85.675335405052024
10
-48.221025026538051
20
85.658263987854156
10
-48.271025026538048
20
85.658263987854156
10
-48.271025026538041
20
81.630201416923114
10
-103.390970088966
20
81.630201416923114
10
-103.34097054803054
20
81.630415674344732
10
-103.35850519484106
20
85.722335965237704
10
-103.40850473577652
20
85.722121707816058
10
-123.20292112619896
20
85.682263012308056
10
-123.30291963241295
20
85.682809597134352
10
-123.32505448647937
20
81.633205152759487
10
-123.2250559802654
20
81.632658567933163
10
-178.42100490274356
20
81.632658567933163
10
-178.37100491978839
20
81.632699853314548
10
-178.37431939174238
20
85.646797232413888
10
-178.42431937469755
20
85.646755947032517
10
-198.20964355228622
20
85.639384950191371
10
-198.25964349429034
20
85.63946110517611
10
-198.26574480861521
20
81.633612198397941
10
-198.21574486661106
20
81.633536043413216
10
-216.03732816845539
20
81.633536043413244
10
-216.02887897208205
20
71.833952567645568
10
-211.99227368782712
20
71.838570174147449
10
-211.95396851072147
20
61.834150698447019
10
-216.01113561035109
20
61.834150699936892
10
-216.01113561041865
20
61.650150699936894
10
-216.00025145022286
20
52.001041813290179
10
-211.98943359362897
20
51.99093659299507
10
-211.98591430976919
20
41.99051303041648
10
-215.98463026482727
20
42.001288531454009
10
-215.98522580027156
20
41.780289333859244
10
-215.98722579839969
20
41.780292070193106
10
-216.00110859176834
20
31.633298854625274
10
-215.99910859364019
20
31.633296118291462
10
-198.29034286972751
20
31.633296122500774
10
-198.29034286972751
20
27.627569348257062
10
-178.38041597921648
20
27.627569348256955
10
-178.38041597920889
20
31.633296127208027
10
-123.27952820851797
20
31.633296140217162
10
-123.27952820343214
20
27.594332243689053
10
-123.22952820343212
20
27.594332243752014
10
-103.43262616739345
20
27.532384624449868
10
-103.38262617220406
20
27.532362691357712
10
-103.3808286161677
20
31.630179483831
10
-103.43082861135711
20
31.630201416923107
10
-48.271023983863358
20
31.630201416923107
10
-48.271023983863365
20
27.551316058640971
10
-48.221023983863361
20
27.551316058640964
10
-28.421023983863396
20
27.534470422162158
10
-28.371023983863395
20
27.534470422162158
10
-28.371023983863395
20
31.634122489753622
10
-20.327168952218329
20
31.634122489753544
10
-20.356110096230541
20
41.845203632734744
10
-20.356324560313226
20
42.004203488096785
10
-24.38996825246079
20
41.998762780667249
10
-24.392121520997783
20
52.003814872053852
10
-20.337692487680663
20
52.003964893177042
0
ENDSEC
0
SECTION
2
OBJECTS
0
DICTIONARY
5
C
100
AcDbDictionary
3
ACAD_GROUP
350
D
3
ACAD_MLINESTYLE
350
17
0
DICTIONARY
5
D
100
AcDbDictionary
0
DICTIONARY
5
1A
330
C
100
AcDbDictionary
0
DICTIONARY
5
17
100
AcDbDictionary
0
ENDSEC
0
EOF
