0
SECTION
2
HEADER
9
$INSUNITS
70
4
9
$ACADVER
1
AC1014
9
$HANDSEED
5
FFFF
0
ENDSEC
0
SECTION
2
TABLES
0
TABLE
2
VPORT
5
8
100
AcDbSymbolTable
0
ENDTAB
0
TABLE
2
LTYPE
5
5
100
AcDbSymbolTable
0
LTYPE
5
14
100
AcDbSymbolTableRecord
100
AcDbLinetypeTableRecord
2
BYBLOCK
70
0
0
LTYPE
5
15
100
AcDbSymbolTableRecord
100
AcDbLinetypeTableRecord
2
BYLAYER
70
0
0
LTYPE
5
16
100
AcDbSymbolTableRecord
100
AcDbLinetypeTableRecord
2
DASHED
70
0
3
Dashed __ __ __ __ __ __ __ __ __ __ __ __ __ _
72
65
73
2
40
0.75
49
0.5
74
0
49
-0.25
74
0
0
ENDTAB
0
TABLE
2
LAYER
5
2
100
AcDbSymbolTable
70
3
0
LAYER
5
50
100
AcDbSymbolTableRecord
100
AcDbLayerTableRecord
2
1
70
0
62
7
6
DASHED
0
LAYER
5
51
100
AcDbSymbolTableRecord
100
AcDbLayerTableRecord
2
0
70
0
62
7
6
CONTINUOUS
0
ENDTAB
0
TABLE
2
STYLE
5
3
100
AcDbSymbolTable
70
1
0
STYLE
5
11
100
AcDbSymbolTableRecord
100
AcDbTextStyleTableRecord
2
STANDARD
70
0
0
ENDTAB
0
TABLE
2
VIEW
5
6
100
AcDbSymbolTable
70
0
0
ENDTAB
0
TABLE
2
UCS
5
7
100
AcDbSymbolTable
70
0
0
ENDTAB
0
TABLE
2
APPID
5
9
100
AcDbSymbolTable
70
2
0
APPID
5
12
100
AcDbSymbolTableRecord
100
AcDbRegAppTableRecord
2
ACAD
70
0
0
ENDTAB
0
TABLE
2
DIMSTYLE
5
A
100
AcDbSymbolTable
70
1
0
ENDTAB
0
TABLE
2
BLOCK_RECORD
5
1
100
AcDbSymbolTable
70
1
0
BLOCK_RECORD
5
1F
100
AcDbSymbolTableRecord
100
AcDbBlockTableRecord
2
*MODEL_SPACE
0
BLOCK_RECORD
5
1B
100
AcDbSymbolTableRecord
100
AcDbBlockTableRecord
2
*PAPER_SPACE
0
ENDTAB
0
ENDSEC
0
SECTION
2
BLOCKS
0
BLOCK
5
20
100
AcDbEntity
100
AcDbBlockBegin
2
*MODEL_SPACE
0
ENDBLK
5
21
100
AcDbEntity
100
AcDbBlockEnd
0
BLOCK
5
1C
100
AcDbEntity
100
AcDbBlockBegin
2
*PAPER_SPACE
0
ENDBLK
5
1D
100
AcDbEntity
100
AcDbBlockEnd
0
ENDSEC
0
SECTION
2
ENTITIES
0
LWPOLYLINE
5
100
100
AcDbEntity
8
0
100
AcDbPolyline
90
45
70
1
43
0.0
10
284.43272296303041
20
93.417919973042999
42
0.4142135623730846
10
283.43272296303036
20
92.417919973043027
10
283.43272296303036
20
90.431919973045638
10
269.00819808263196
20
90.431919973045979
42
0.41421356237311585
10
268.00819808263191
20
89.431919973046021
10
268.00819808263145
20
68.434486365048997
10
266.00819808263151
20
68.43448636504904
42
0.41421356237307161
10
265.00819808263145
20
67.434486365049054
10
265.00819808263117
20
54.434486365049068
42
0.41421356237306384
10
266.00819808263111
20
53.434486365049054
10
268.008198082631
20
53.434486365049011
10
268.00819808262975
20
5.1223197407157439
10
266.00819808263003
20
5.1223197407157954
42
0.41421356237307294
10
265.00819808262997
20
4.1223197407158185
10
265.00819808262963
20
-8.8776802592841833
42
0.41421356237306806
10
266.00819808262958
20
-9.8776802592842134
10
268.00819808262958
20
-9.8776802592842508
10
268.00819808262906
20
-30.568080026953986
42
0.4142135623730625
10
269.00819808262901
20
-31.568080026953997
10
283.42832410458539
20
-31.568080026954352
10
283.42832410458539
20
-33.570080026954884
42
0.41421356237306772
10
284.42832410458533
20
-34.570080026954912
10
315.32832410458536
20
-34.570080026955488
42
0.41421356237307294
10
316.32832410458542
20
-33.570080026955502
10
316.32832410458542
20
-31.568080026955144
10
330.00311102869682
20
-31.568080026955471
42
0.41421356237307549
10
331.00311102869682
20
-30.568080026955506
10
331.00311102869733
20
-10.877680259285745
42
-0.41421356237308721
10
332.00311102869733
20
-9.8776802592857713
10
333.00311102869733
20
-9.877680259285798
42
0.41421356237307455
10
334.00311102869739
20
-8.8776802592858211
10
334.00311102869762
20
4.1223197407141772
42
0.41421356237310497
10
333.00311102869773
20
5.1223197407142251
10
331.00311102869767
20
5.1223197407142518
10
331.00311102869881
20
53.434486365047498
10
333.00311102869887
20
53.434486365047434
42
0.41421356237304302
10
334.00311102869887
20
54.434486365047412
10
334.00311102869915
20
67.43448636504742
42
0.41421356237312623
10
333.0031110286991
20
68.434486365047405
10
331.00311102869921
20
68.434486365047491
10
331.00311102869966
20
89.431919973044515
42
0.41421356237313145
10
330.00311102869966
20
90.431919973044501
10
316.33272296303039
20
90.431919973044842
10
316.33272296303039
20
92.417919973042387
42
0.41421356237306384
10
315.33272296303045
20
93.417919973042402
0
CIRCLE
5
101
100
AcDbEntity
8
0
100
AcDbCircle
10
285.85978648637445
20
26.40982079847906
30
0
40
4.0000000000000124
210
0
220
0
230
1
0
CIRCLE
5
102
100
AcDbEntity
8
0
100
AcDbCircle
10
285.8597864863753
20
62.409820798479068
30
0
40
4.0000000000000124
210
0
220
0
230
1
0
LWPOLYLINE
5
103
100
AcDbEntity
8
0
100
AcDbPolyline
90
72
70
1
43
0.0
10
214.65404534135581
20
130.91903186158598
42
0.41421356237310542
10
215.65404534135581
20
131.91903186158598
10
215.65404534135581
20
133.91903186158598
10
241.65416076490806
20
133.91903186158598
42
0.41421356237310542
10
242.65416076490808
20
134.91903186158598
10
242.65416076490808
20
148.28103186158597
42
0.41421356237308982
10
241.65416076490806
20
149.28103186158597
10
239.65916076490811
20
149.28103186158597
10
239.65916076490814
20
182.28103186158597
10
241.65416076490806
20
182.28103186158597
42
0.41421356237309503
10
242.65416076490808
20
183.281031861586
10
242.65416076490808
20
195.91903186158595
42
0.41421356237309503
10
241.65416076490806
20
196.91903186158598
10
215.66570761682826
20
196.91903186158598
10
215.66570761682826
20
198.91903186158601
42
0.41421356237309503
10
214.66570761682823
20
199.91903186158601
10
201.66570761682829
20
199.91903186158598
42
0.41421356237309503
10
200.66570761682826
20
198.91903186158601
10
200.66570761682826
20
196.91903186158598
10
153.99904095016157
20
196.91903186158598
10
153.99904095016157
20
198.91903186158601
42
0.41421356237310542
10
152.99904095016157
20
199.91903186158601
10
139.99904095016154
20
199.91903186158598
42
0.41421356237310542
10
138.99904095016157
20
198.91903186158601
10
138.99904095016157
20
196.91903186158598
10
92.332374283494886
20
196.91903186158598
10
92.332374283494886
20
198.91903186158601
42
0.41421356237310542
10
91.332374283494886
20
199.91903186158601
10
78.332374283494886
20
199.91903186158598
42
0.41421356237310802
10
77.3323742834949
20
198.91903186158601
10
77.332374283494886
20
196.91903186158598
10
30.665707616828222
20
196.91903186158598
10
30.665707616828225
20
198.91903186158601
42
0.41421356237309243
10
29.665707616828225
20
199.91903186158601
10
16.665707616828229
20
199.91903186158598
42
0.41421356237310542
10
15.665707616828248
20
198.91903186158601
10
15.665707616828223
20
196.91903186158598
10
-8.344868236333383
20
196.91903186158598
42
0.4142135623731048
10
-9.3448682363333582
20
195.91903186158595
10
-9.3448682363333795
20
183.281031861586
42
0.41421356237310542
10
-8.3448682363333795
20
182.28103186158594
10
-6.340868236333379
20
182.28103186158597
10
-6.340868236333379
20
149.28103186158597
10
-8.3448682363333795
20
149.28103186158597
42
0.41421356237309404
10
-9.3448682363333742
20
148.28103186158597
10
-9.3448682363333795
20
134.91903186158598
42
0.41421356237309664
10
-8.3448682363333777
20
133.91903186158598
10
15.654045341355792
20
133.91903186158598
10
15.65404534135579
20
131.91903186158598
42
0.41421356237309631
10
16.65404534135579
20
130.91903186158598
10
29.65404534135579
20
130.91903186158598
42
0.41421356237309631
10
30.65404534135579
20
131.91903186158598
10
30.654045341355793
20
133.91903186158598
10
77.320712008022454
20
133.91903186158598
10
77.320712008022454
20
131.91903186158598
42
0.41421356237309764
10
78.320712008022454
20
130.91903186158601
10
91.320712008022468
20
130.91903186158598
42
0.41421356237310542
10
92.320712008022468
20
131.91903186158598
10
92.320712008022468
20
133.91903186158598
10
95.06290032896672
20
133.91903186158598
10
95.06290032896672
20
153.91903186158598
10
114.57295923326734
20
153.91903186158598
10
114.57295923326734
20
133.91903186158598
10
138.98737867468913
20
133.91903186158598
10
138.98737867468913
20
131.91903186158598
42
0.41421356237309503
10
139.98737867468913
20
130.91903186158598
10
152.98737867468913
20
130.91903186158598
42
0.41421356237309503
10
153.98737867468913
20
131.91903186158598
10
153.98737867468913
20
133.91903186158598
10
200.65404534135578
20
133.91903186158598
10
200.65404534135578
20
131.91903186158598
42
0.41421356237307422
10
201.65404534135578
20
130.91903186158595
0
CIRCLE
5
104
100
AcDbEntity
8
0
100
AcDbCircle
10
207.69458654578881
20
154.28103186158597
30
0
40
3.9999999999999858
210
-0
220
0
230
1
0
CIRCLE
5
105
100
AcDbEntity
8
0
100
AcDbCircle
10
187.69458654578881
20
154.28103186158597
30
0
40
3.9999999999999858
210
-0
220
0
230
1
0
CIRCLE
5
106
100
AcDbEntity
8
0
100
AcDbCircle
10
227.69458654578881
20
154.28103186158597
30
0
40
3.5000000000000142
210
-0
220
0
230
1
0
CIRCLE
5
107
100
AcDbEntity
8
0
100
AcDbCircle
10
167.69458654578875
20
154.28103186158597
30
0
40
3.9999999999999858
210
-0
220
0
230
1
0
CIRCLE
5
108
100
AcDbEntity
8
0
100
AcDbCircle
10
40.869617185166369
20
151.11122437566485
30
0
40
6.0000000000000009
210
0
220
-0
230
1
0
LWPOLYLINE
5
109
100
AcDbEntity
8
0
100
AcDbPolyline
90
80
70
1
43
0.0
10
371.65467768727814
20
-9.9414732747005061
42
0.41421356237307749
10
370.65467768727808
20
-10.941473274700506
10
370.65467768727814
20
-28.579473274700504
42
0.41421356237309465
10
376.65467768727814
20
-34.579473274700511
10
394.60467768727813
20
-34.579473274700504
42
0.41421356237302348
10
395.60467768727801
20
-33.579473274700504
10
395.60467768727813
20
-31.570532107374962
10
410.70467768727815
20
-31.570532107374962
10
410.70467768727815
20
-33.579473274700504
42
0.41421356237302348
10
411.70467768727815
20
-34.579473274700561
10
456.27134435394481
20
-34.579473274700504
42
0.41421356237302348
10
457.27134435394476
20
-33.579473274700504
10
457.27134435394481
20
-31.570532107374962
10
472.37134435394478
20
-31.570532107374962
10
472.37134435394478
20
-33.579473274700504
42
0.41421356237307549
10
473.37134435394483
20
-34.579473274700455
10
517.9380110206115
20
-34.579473274700504
42
0.41421356237302348
10
518.9380110206115
20
-33.579473274700504
10
518.9380110206115
20
-31.570532107374962
10
534.03801102061141
20
-31.570532107374962
10
534.03801102061141
20
-33.579473274700504
42
0.41421356237302348
10
535.03801102061152
20
-34.579473274700561
10
579.60467768727813
20
-34.579473274700504
42
0.41421356237302348
10
580.60467768727801
20
-33.579473274700504
10
580.60467768727813
20
-31.570532107374962
10
595.70467768727804
20
-31.570532107374962
10
595.70467768727804
20
-33.579473274700504
42
0.41421356237306639
10
596.70467768727815
20
-34.57947327470049
10
616.65467768727808
20
-34.579473274700504
42
0.4142135623730957
10
622.65467768727808
20
-28.579473274700504
10
622.65467768727808
20
-10.941473274700506
42
0.41421356237317114
10
621.65467768727797
20
-9.9414732747005168
10
619.65467768727808
20
-9.9414732747005008
10
619.65467768727808
20
5.1585267252994971
10
621.65467768727808
20
5.1585267252994971
42
0.41421356237308493
10
622.65467768727808
20
6.1585267252995024
10
622.65467768727808
20
52.370693349632731
42
0.41421356237317308
10
621.65467768727797
20
53.370693349632731
10
619.65467768727808
20
53.370693349632738
10
619.65467768727808
20
68.470693349632739
10
621.65467768727808
20
68.470693349632739
42
0.41421356237304563
10
622.65467768727808
20
69.470693349632739
10
622.65467768727808
20
87.420693349632742
42
0.41421356237308815
10
616.65467768727808
20
93.420693349632757
10
596.70467768727815
20
93.420693349632728
42
0.41421356237300139
10
595.70467768727826
20
92.420693349632742
10
595.70467768727804
20
90.417467892625027
10
580.60467768727813
20
90.417467892625027
10
580.60467768727813
20
92.420693349632757
42
0.41421356237317308
10
579.6046776872779
20
93.420693349632757
10
535.03801102061152
20
93.420693349632728
42
0.4142135623730222
10
534.03801102061152
20
92.420693349632742
10
534.03801102061141
20
90.417467892625027
10
518.9380110206115
20
90.417467892625027
10
518.9380110206115
20
92.420693349632757
42
0.4142135623730222
10
517.9380110206115
20
93.420693349632813
10
473.37134435394483
20
93.420693349632728
42
0.41421356237307422
10
472.37134435394472
20
92.420693349632742
10
472.37134435394478
20
90.417467892625027
10
457.27134435394481
20
90.417467892625027
10
457.27134435394481
20
92.420693349632757
42
0.4142135623730222
10
456.27134435394481
20
93.420693349632813
10
411.70467768727809
20
93.420693349632728
42
0.41421356237300139
10
410.70467768727826
20
92.420693349632742
10
410.70467768727815
20
90.417467892625027
10
395.60467768727813
20
90.417467892625027
10
395.60467768727813
20
92.420693349632757
42
0.4142135623730222
10
394.60467768727813
20
93.420693349632813
10
376.65467768727814
20
93.420693349632728
42
0.41421356237309764
10
370.65467768727808
20
87.420693349632728
10
370.65467768727814
20
69.470693349632739
42
0.41421356237308204
10
371.65467768727814
20
68.470693349632768
10
373.65467768727808
20
68.470693349632739
10
373.65467768727808
20
53.370693349632738
10
371.65467768727814
20
53.370693349632731
42
0.41421356237308204
10
370.65467768727814
20
52.370693349632731
10
370.65467768727814
20
6.1585267252995024
42
0.41421356237307749
10
371.65467768727814
20
5.1585267252995486
10
373.65467768727808
20
5.1585267252994971
10
373.65467768727808
20
-9.9414732747005008
0
LWPOLYLINE
5
110
100
AcDbEntity
8
0
100
AcDbPolyline
90
4
70
1
43
0.0
10
404.81190252903838
20
64.076789993472758
10
411.73345786909096
20
24.822699032454068
42
-1.000313897351004
10
409.73909255420261
20
24.471683970939146
10
402.84217821951347
20
63.730111832507284
42
-0.99968620115103835
0
LWPOLYLINE
5
111
100
AcDbEntity
8
0
100
AcDbPolyline
90
4
70
1
43
0.0
10
433.38333110046699
20
64.076789993472758
10
440.30488644051951
20
24.822699032454068
42
-1.000313897351004
10
438.31052112563111
20
24.471683970939146
10
431.41360679094203
20
63.730111832507284
42
-0.99968620115103835
0
LWPOLYLINE
5
112
100
AcDbEntity
8
0
100
AcDbPolyline
90
4
70
1
43
0.0
10
516.13456562924409
20
63.601146634500914
10
505.81812944418027
20
25.099682637124122
42
-1.0003138973481731
10
503.86227525396055
20
25.624410156165567
10
514.20287662743499
20
64.119390981419457
42
-0.99968620115245299
0
LWPOLYLINE
5
113
100
AcDbEntity
8
0
100
AcDbPolyline
90
4
70
1
43
0.0
10
547.56313705781554
20
63.601146634500914
10
537.24670087275183
20
25.09968263712414
42
-1.0003138973481731
10
535.29084668253188
20
25.624410156165549
10
545.63144805600643
20
64.119390981419286
42
-0.99968620115254125
0
LWPOLYLINE
5
114
100
AcDbEntity
8
0
100
AcDbPolyline
90
4
70
1
43
0.0
10
539.70599420067276
20
63.601146634500914
10
529.38955801560883
20
25.099682637124122
42
-1.0003138973481731
10
527.4337038253891
20
25.624410156165567
10
537.77430519886354
20
64.119390981419457
42
-0.99968620115245299
0
LWPOLYLINE
5
115
100
AcDbEntity
8
0
100
AcDbPolyline
90
4
70
1
43
0.0
10
508.27742277210126
20
63.601146634500914
10
497.96098658703755
20
25.09968263712414
42
-1.0003138973481731
10
496.0051323968176
20
25.624410156165549
10
506.34573377029221
20
64.119390981419457
42
-0.99968620115245299
0
LWPOLYLINE
5
116
100
AcDbEntity
8
0
100
AcDbPolyline
90
4
70
1
43
0.0
10
426.24047395760982
20
64.076789993472758
10
433.16202929766234
20
24.822699032454068
42
-1.000313897351004
10
431.167663982774
20
24.471683970939146
10
424.27074964808492
20
63.730111832507284
42
-0.99968620115103835
0
LWPOLYLINE
5
117
100
AcDbEntity
8
0
100
AcDbPolyline
90
4
70
1
43
0.0
10
397.66904538618121
20
64.076789993472758
10
404.59060072623379
20
24.822699032454068
42
-1.000313897351004
10
402.59623541134545
20
24.471683970939146
10
395.6993210766563
20
63.730111832507284
42
-0.99968620115103835
0
LWPOLYLINE
5
118
100
AcDbEntity
8
0
100
AcDbPolyline
90
4
70
1
43
0.0
10
411.95475967189554
20
64.076789993472758
10
418.87631501194812
20
24.822699032454068
42
-1.000313897351004
10
416.88194969705978
20
24.471683970939146
10
409.98503536237058
20
63.730111832507284
42
-0.99968620115103835
0
LWPOLYLINE
5
119
100
AcDbEntity
8
0
100
AcDbPolyline
90
4
70
1
43
0.0
10
440.5261882433241
20
64.076789993472758
10
447.44774358337668
20
24.822699032454068
42
-1.000313897351004
10
445.45337826848828
20
24.471683970939146
10
438.55646393379908
20
63.730111832507284
42
-0.99968620115103835
0
LWPOLYLINE
5
120
100
AcDbEntity
8
0
100
AcDbPolyline
90
4
70
1
43
0.0
10
523.9917084863871
20
63.601146634500914
10
513.67527230132328
20
25.09968263712414
42
-1.0003138973481731
10
511.71941811110332
20
25.624410156165549
10
522.06001948457788
20
64.119390981419457
42
-0.99968620115245299
0
LWPOLYLINE
5
121
100
AcDbEntity
8
0
100
AcDbPolyline
90
4
70
1
43
0.0
10
543.14798953967488
20
25.62441015616556
10
553.48859091314921
20
64.119390981419443
42
-0.99968620115245299
10
555.42027991495843
20
63.601146634500921
10
545.10384372989483
20
25.099682637124477
42
-1.0003138973483501
0
LWPOLYLINE
5
122
100
AcDbEntity
8
0
100
AcDbPolyline
90
4
70
1
43
0.0
10
531.84885134352976
20
63.601146634500914
10
521.53241515846616
20
25.09968263712414
42
-1.0003138973481731
10
519.57656096824621
20
25.624410156165549
10
529.91716234172077
20
64.119390981419457
42
-0.99968620115245299
0
LWPOLYLINE
5
123
100
AcDbEntity
8
0
100
AcDbPolyline
90
4
70
1
43
0.0
10
500.42027991495843
20
63.601146634500914
10
490.10384372989455
20
25.099682637124122
42
-1.0003138973481731
10
488.14798953967482
20
25.624410156165567
10
498.48859091314921
20
64.119390981419457
42
-0.99968620115245299
0
LWPOLYLINE
5
124
100
AcDbEntity
8
0
100
AcDbPolyline
90
4
70
1
43
0.0
10
419.09761681475266
20
64.076789993472758
10
426.01917215480518
20
24.822699032454068
42
-1.000313897351004
10
424.02480683991683
20
24.471683970939146
10
417.12789250522775
20
63.730111832507284
42
-0.99968620115103835
0
LWPOLYLINE
5
125
100
AcDbEntity
8
0
100
AcDbPolyline
90
4
70
1
43
0.0
10
390.5261882433241
20
64.076789993472758
10
397.44774358337668
20
24.822699032454068
42
-1.000313897351004
10
395.45337826848828
20
24.471683970939146
10
388.55646393379908
20
63.730111832507284
42
-0.99968620115103835
0
CIRCLE
5
126
100
AcDbEntity
8
0
100
AcDbCircle
10
47.690176501958916
20
-110.34551279510835
30
0
40
3.5000000000000004
210
0
220
0
230
1
0
CIRCLE
5
127
100
AcDbEntity
8
0
100
AcDbCircle
10
169.33488355911888
20
-110.35599529957827
30
0
40
3.5000000000000004
210
0
220
0
230
1
0
LWPOLYLINE
5
128
100
AcDbEntity
8
0
100
AcDbPolyline
90
68
70
1
43
0.0
10
241.65459410442759
20
-79.405836299924502
42
0.41421356237310802
10
242.65459410442759
20
-78.405836299924502
10
242.65459410442756
20
-65.767836299924511
42
0.41421356237308721
10
241.65459410442753
20
-64.767836299924525
10
215.65714095634772
20
-64.767836299924511
10
215.65714095634772
20
-62.767836299924504
42
0.41421356237308971
10
214.68714095634769
20
-61.797836299924505
10
201.65714095634772
20
-61.797836299924505
42
0.41421356237308721
10
200.65714095634772
20
-62.797836299924505
10
200.65714095634772
20
-64.767836299924511
10
153.99047428968103
20
-64.767836299924511
10
153.99047428968103
20
-62.737836299924503
42
0.41421356237309503
10
152.99047428968103
20
-61.737836299924503
10
140.02047428968103
20
-61.737836299924503
42
0.41421356237310519
10
138.99047428968103
20
-62.767836299924504
10
138.99047428968103
20
-64.767836299924511
10
92.323807623014346
20
-64.767836299924511
10
92.323807623014346
20
-62.767836299924504
42
0.41421356237309503
10
91.323807623014361
20
-61.767836299924504
10
78.323807623014346
20
-61.767836299924504
42
0.41421356237309503
10
77.323807623014346
20
-62.767836299924504
10
77.323807623014346
20
-64.767836299924511
10
30.647140956347698
20
-64.767836299924511
10
30.647140956347695
20
-62.767836299924504
42
0.41421356237309503
10
29.647140956347691
20
-61.767836299924497
10
16.647140956347695
20
-61.767836299924504
42
0.41421356237309503
10
15.647140956347698
20
-62.767836299924504
10
15.647140956347695
20
-64.767836299924511
10
-8.3454348968139094
20
-64.767836299924511
42
0.4142135623730947
10
-9.3454348968139058
20
-65.767836299924511
10
-9.3454348968139076
20
-78.405836299924502
42
0.41421356237309537
10
-8.3454348968139076
20
-79.405836299924502
10
-6.3394348968139091
20
-79.405836299924502
10
-6.3394348968139091
20
-112.4058362999245
10
-8.3454348968139094
20
-112.4058362999245
42
0.41421356237309404
10
-9.345434896813904
20
-113.4058362999245
10
-9.3454348968139094
20
-126.76783629992451
42
0.41421356237309404
10
-8.3454348968139076
20
-127.76783629992451
10
15.655478680875257
20
-127.76783629992451
10
15.655478680875259
20
-129.76783629992451
42
0.4142135623730937
10
16.655478680875262
20
-130.76783629992451
10
29.655478680875262
20
-130.76783629992451
42
0.4142135623730937
10
30.655478680875255
20
-129.76783629992451
10
30.655478680875262
20
-127.76783629992451
10
77.32214534754192
20
-127.76783629992451
10
77.32214534754192
20
-129.76783629992451
42
0.41421356237309503
10
78.32214534754192
20
-130.76783629992451
10
91.322145347541948
20
-130.76783629992451
42
0.41421356237309503
10
92.322145347541934
20
-129.76783629992451
10
92.322145347541934
20
-127.76783629992451
10
138.98881201420861
20
-127.76783629992451
10
138.98881201420861
20
-129.76783629992451
42
0.41421356237309503
10
139.98881201420861
20
-130.76783629992451
10
152.98881201420861
20
-130.76783629992451
42
0.41421356237309503
10
153.98881201420861
20
-129.76783629992451
10
153.98881201420861
20
-127.76783629992451
10
200.65547868087523
20
-127.76783629992451
10
200.65547868087523
20
-129.76783629992451
42
0.41421356237305862
10
201.65547868087521
20
-130.76783629992451
10
214.65547868087526
20
-130.76783629992451
42
0.41421356237308982
10
215.65547868087526
20
-129.76783629992451
10
215.65547868087526
20
-127.76783629992451
10
241.65459410442753
20
-127.76783629992451
42
0.414213562373069
10
242.65459410442756
20
-126.76783629992451
10
242.65459410442756
20
-113.4058362999245
42
0.41421356237308982
10
241.65459410442759
20
-112.4058362999245
10
239.66059410442756
20
-112.4058362999245
10
239.66059410442756
20
-79.405836299924502
0
CIRCLE
5
129
100
AcDbEntity
8
0
100
AcDbCircle
10
148.89645927662966
20
-93.855836299924519
30
0
40
16.499999999999986
210
-0
220
0
230
1
0
LWPOLYLINE
5
130
100
AcDbEntity
8
0
100
AcDbPolyline
90
8
70
1
43
0.0
10
185.20376884064052
20
-106.77242188037803
10
182.20376884064052
20
-106.77242188037806
42
-0.41421356237309503
10
174.70376884064052
20
-99.272421880378062
10
174.70376884064052
20
-90.272421880378033
42
-0.41421356237309648
10
182.20376884064055
20
-82.772421880378033
10
185.20376884064052
20
-82.772421880378033
42
-0.41421356237309781
10
192.70376884064058
20
-90.272421880378062
10
192.70376884064052
20
-99.272421880378076
42
-0.41421356237309648
0
LWPOLYLINE
5
131
100
AcDbEntity
8
0
100
AcDbPolyline
90
8
70
1
43
0.0
10
195.70376884064052
20
-99.272421880378062
10
195.70376884064052
20
-90.272421880378033
42
-0.41421356237309648
10
203.20376884064058
20
-82.772421880378033
10
206.20376884064055
20
-82.772421880378033
42
-0.41421356237309781
10
213.70376884064058
20
-90.272421880378062
10
213.70376884064055
20
-99.272421880378076
42
-0.41421356237309231
10
206.20376884064063
20
-106.77242188037803
10
203.20376884064052
20
-106.77242188037806
42
-0.41421356237309503
0
CIRCLE
5
132
100
AcDbEntity
8
0
100
AcDbCircle
10
230.68219780033075
20
-111.67202500040841
30
0
40
1.5499999999999934
210
0
220
-0
230
1
0
CIRCLE
5
133
100
AcDbEntity
8
0
100
AcDbCircle
10
29.406459276629636
20
-93.855836299924519
30
0
40
16.5
210
0
220
-0
230
1
0
CIRCLE
5
134
100
AcDbEntity
8
0
100
AcDbCircle
10
66.236459276629645
20
-93.855836299924519
30
0
40
16.5
210
0
220
-0
230
1
0
CIRCLE
5
135
100
AcDbEntity
8
0
100
AcDbCircle
10
112.28317478728684
20
-93.855836299924519
30
0
40
16.5
210
0
220
-0
230
1
0
CIRCLE
5
136
100
AcDbEntity
8
0
100
AcDbCircle
10
0.76022186769206357
20
-112.02609742232455
30
0
40
1.550000000000002
210
0
220
-0
230
1
0
CIRCLE
5
137
100
AcDbEntity
8
0
100
AcDbCircle
10
0.8001870415084178
20
-78.166276181539956
30
0
40
1.5500000000000014
210
0
220
-0
230
1
0
CIRCLE
5
138
100
AcDbEntity
8
0
100
AcDbCircle
10
230.67069102233256
20
-78.151766300172611
30
0
40
1.549999999999994
210
0
220
-0
230
1
0
LWPOLYLINE
5
139
100
AcDbEntity
8
0
100
AcDbPolyline
90
45
70
1
43
0.0
10
-76.571675895414614
20
-33.570080026954884
42
0.41421356237309631
10
-75.571675895414657
20
-34.570080026954912
10
-44.671675895414616
20
-34.570080026955488
42
0.41421356237309892
10
-43.671675895414594
20
-33.570080026955502
10
-43.671675895414559
20
-31.568080026955144
10
-29.996888971303193
20
-31.568080026955471
42
0.41421356237308204
10
-28.996888971303193
20
-30.568080026955506
10
-28.996888971302667
20
-10.877680259285745
42
-0.41421356237308721
10
-27.996888971302667
20
-9.8776802592857713
10
-26.996888971302674
20
-9.877680259285798
42
0.41421356237309404
10
-25.996888971302653
20
-8.8776802592858211
10
-25.996888971302337
20
4.1223197407141772
42
0.41421356237309404
10
-26.996888971302319
20
5.1223197407142065
10
-28.996888971302326
20
5.1223197407142518
10
-28.996888971301189
20
53.434486365047498
10
-26.996888971301139
20
53.434486365047434
42
0.41421356237308854
10
-25.996888971301111
20
54.434486365047405
10
-25.996888971300798
20
67.43448636504742
42
0.41421356237309892
10
-26.996888971300784
20
68.434486365047448
10
-28.996888971300763
20
68.434486365047491
10
-28.996888971300336
20
89.431919973044515
42
0.41421356237310153
10
-29.996888971300351
20
90.431919973044529
10
-43.667277036969651
20
90.431919973044842
10
-43.667277036969601
20
92.417919973042387
42
0.41421356237309503
10
-44.667277036969573
20
93.417919973042402
10
-75.5672770369696
20
93.417919973042999
42
0.41421356237310281
10
-76.567277036969614
20
92.417919973043041
10
-76.567277036969656
20
90.431919973045638
10
-90.991801917368036
20
90.431919973045979
42
0.41421356237310542
10
-91.991801917368079
20
89.431919973046021
10
-91.991801917368576
20
68.434486365048997
10
-93.991801917368548
20
68.43448636504904
42
0.41421356237310542
10
-94.991801917368548
20
67.434486365049054
10
-94.991801917368889
20
54.434486365049068
42
0.41421356237310025
10
-93.991801917368903
20
53.434486365049032
10
-91.991801917369003
20
53.434486365049011
10
-91.991801917370282
20
5.1223197407157439
10
-93.991801917370054
20
5.1223197407157954
42
0.41421356237309231
10
-94.991801917370083
20
4.1223197407158185
10
-94.99180191737041
20
-8.8776802592841833
42
0.41421356237309892
10
-93.991801917370438
20
-9.8776802592842117
10
-91.991801917370424
20
-9.8776802592842508
10
-91.991801917370921
20
-30.568080026953986
42
0.41421356237308204
10
-90.991801917370978
20
-31.568080026954011
10
-76.571675895414572
20
-31.568080026954352
0
LWPOLYLINE
5
140
100
AcDbEntity
8
0
100
AcDbPolyline
90
80
70
1
43
0.0
10
-8.3453223127218656
20
-9.9414732747005061
42
0.41421356237309537
10
-9.3453223127218656
20
-10.941473274700506
10
-9.3453223127218656
20
-28.579473274700504
42
0.41421356237309465
10
-3.3453223127218639
20
-34.579473274700504
10
14.604677687278134
20
-34.579473274700504
42
0.41421356237309176
10
15.604677687278132
20
-33.579473274700504
10
15.60467768727813
20
-31.570532107374962
10
30.704677687278146
20
-31.570532107374962
10
30.704677687278146
20
-33.579473274700504
42
0.41421356237309243
10
31.704677687278142
20
-34.579473274700504
10
76.271344353944812
20
-34.579473274700504
42
0.41421356237309503
10
77.271344353944812
20
-33.579473274700504
10
77.271344353944812
20
-31.570532107374962
10
92.371344353944806
20
-31.570532107374962
10
92.371344353944806
20
-33.579473274700504
42
0.4142135623730937
10
93.371344353944806
20
-34.579473274700497
10
137.9380110206115
20
-34.579473274700504
42
0.41421356237309631
10
138.9380110206115
20
-33.579473274700504
10
138.9380110206115
20
-31.570532107374962
10
154.03801102061146
20
-31.570532107374962
10
154.03801102061146
20
-33.579473274700504
42
0.41421356237309631
10
155.03801102061146
20
-34.579473274700504
10
199.6046776872781
20
-34.579473274700504
42
0.41421356237310281
10
200.60467768727815
20
-33.579473274700504
10
200.60467768727813
20
-31.570532107374962
10
215.70467768727809
20
-31.570532107374962
10
215.70467768727809
20
-33.579473274700504
42
0.41421356237306123
10
216.70467768727809
20
-34.579473274700511
10
236.65467768727808
20
-34.579473274700504
42
0.41421356237309853
10
242.65467768727817
20
-28.579473274700504
10
242.65467768727808
20
-10.941473274700506
42
0.4142135623731048
10
241.65467768727808
20
-9.9414732747004937
10
239.65467768727814
20
-9.9414732747005008
10
239.65467768727814
20
5.1585267252994971
10
241.65467768727808
20
5.1585267252994971
42
0.41421356237310381
10
242.65467768727814
20
6.1585267252995024
10
242.65467768727808
20
52.370693349632731
42
0.41421356237311324
10
241.65467768727808
20
53.370693349632703
10
239.65467768727814
20
53.370693349632738
10
239.65467768727814
20
68.470693349632739
10
241.65467768727808
20
68.470693349632739
42
0.41421356237311324
10
242.65467768727817
20
69.470693349632739
10
242.65467768727808
20
87.420693349632742
42
0.41421356237309936
10
236.65467768727808
20
93.420693349632728
10
216.70467768727809
20
93.420693349632728
42
0.41421356237307422
10
215.70467768727809
20
92.420693349632742
10
215.70467768727809
20
90.417467892625027
10
200.60467768727813
20
90.417467892625027
10
200.60467768727813
20
92.420693349632757
42
0.41421356237311585
10
199.6046776872781
20
93.420693349632728
10
155.03801102061146
20
93.420693349632728
42
0.41421356237309503
10
154.03801102061146
20
92.420693349632742
10
154.03801102061146
20
90.417467892625027
10
138.9380110206115
20
90.417467892625027
10
138.9380110206115
20
92.420693349632757
42
0.41421356237310542
10
137.9380110206115
20
93.420693349632757
10
93.371344353944806
20
93.420693349632728
42
0.41421356237309503
10
92.371344353944806
20
92.420693349632742
10
92.371344353944806
20
90.417467892625027
10
77.271344353944812
20
90.417467892625027
10
77.271344353944812
20
92.420693349632757
42
0.41421356237309764
10
76.271344353944812
20
93.420693349632728
10
31.704677687278142
20
93.420693349632728
42
0.41421356237308854
10
30.704677687278149
20
92.420693349632757
10
30.704677687278135
20
90.417467892625027
10
15.604677687278139
20
90.417467892625027
10
15.60467768727813
20
92.420693349632757
42
0.41421356237309631
10
14.604677687278134
20
93.420693349632757
10
-3.3453223127218656
20
93.420693349632728
42
0.41421356237309576
10
-9.3453223127218763
20
87.420693349632728
10
-9.3453223127218656
20
69.470693349632739
42
0.41421356237309925
10
-8.3453223127218656
20
68.470693349632739
10
-6.345322312721855
20
68.470693349632739
10
-6.345322312721855
20
53.370693349632738
10
-8.3453223127218656
20
53.370693349632731
42
0.41421356237309925
10
-9.3453223127218674
20
52.370693349632731
10
-9.3453223127218621
20
6.1585267252995024
42
0.41421356237309437
10
-8.3453223127218656
20
5.1585267252995024
10
-6.3453223127218639
20
5.1585267252994971
10
-6.3453223127218639
20
-9.9414732747005008
0
LWPOLYLINE
5
141
100
AcDbEntity
8
0
100
AcDbPolyline
90
4
70
1
43
0.0
10
24.811902529038381
20
64.076789993472758
10
31.73345786909087
20
24.822699032454068
42
-1.000313897351004
10
29.739092554202582
20
24.471683970939146
10
22.842178219513428
20
63.730111832507284
42
-0.99968620115103835
0
LWPOLYLINE
5
142
100
AcDbEntity
8
0
100
AcDbPolyline
90
4
70
1
43
0.0
10
53.383331100466947
20
64.076789993472758
10
60.304886440519439
20
24.822699032454068
42
-1.000313897351004
10
58.310521125631148
20
24.471683970939146
10
51.413606790941998
20
63.730111832507284
42
-0.99968620115103835
0
LWPOLYLINE
5
143
100
AcDbEntity
8
0
100
AcDbPolyline
90
4
70
1
43
0.0
10
136.13456562924415
20
63.601146634500914
10
125.81812944418046
20
25.099682637124477
42
-1.0003138973483501
10
123.8622752539605
20
25.62441015616556
10
134.20287662743496
20
64.119390981419457
42
-0.99968620115245299
0
LWPOLYLINE
5
144
100
AcDbEntity
8
0
100
AcDbPolyline
90
4
70
1
43
0.0
10
167.5631370578156
20
63.601146634500914
10
157.24670087275189
20
25.099682637124477
42
-1.0003138973483501
10
155.29084668253194
20
25.62441015616556
10
165.63144805600632
20
64.119390981419286
42
-0.99968620115254125
0
LWPOLYLINE
5
145
100
AcDbEntity
8
0
100
AcDbPolyline
90
4
70
1
43
0.0
10
159.70599420067271
20
63.601146634500914
10
149.38955801560903
20
25.099682637124477
42
-1.0003138973483501
10
147.43370382538907
20
25.62441015616556
10
157.77430519886354
20
64.119390981419457
42
-0.99968620115245299
0
LWPOLYLINE
5
146
100
AcDbEntity
8
0
100
AcDbPolyline
90
4
70
1
43
0.0
10
128.27742277210126
20
63.601146634500914
10
117.96098658703758
20
25.099682637124477
42
-1.0003138973483501
10
116.00513239681763
20
25.62441015616556
10
126.3457337702921
20
64.119390981419457
42
-0.99968620115245299
0
LWPOLYLINE
5
147
100
AcDbEntity
8
0
100
AcDbPolyline
90
4
70
1
43
0.0
10
46.240473957609808
20
64.076789993472758
10
53.162029297662301
20
24.822699032454068
42
-1.000313897351004
10
51.167663982774002
20
24.471683970939146
10
44.270749648084859
20
63.730111832507284
42
-0.99968620115103835
0
LWPOLYLINE
5
148
100
AcDbEntity
8
0
100
AcDbPolyline
90
4
70
1
43
0.0
10
17.669045386181239
20
64.076789993472758
10
24.590600726233728
20
24.822699032454068
42
-1.000313897351004
10
22.59623541134544
20
24.471683970939146
10
15.699321076656226
20
63.730111832507639
42
-0.99968620115086138
0
LWPOLYLINE
5
149
100
AcDbEntity
8
0
100
AcDbPolyline
90
4
70
1
43
0.0
10
31.95475967189552
20
64.076789993472758
10
38.876315011948009
20
24.822699032454068
42
-1.000313897351004
10
36.881949697059724
20
24.471683970939146
10
29.985035362370567
20
63.730111832507284
42
-0.99968620115103835
0
LWPOLYLINE
5
150
100
AcDbEntity
8
0
100
AcDbPolyline
90
4
70
1
43
0.0
10
60.526188243324093
20
64.076789993472758
10
67.447743583376592
20
24.822699032454068
42
-1.000313897351004
10
65.453378268488294
20
24.471683970939146
10
58.556463933799144
20
63.730111832507284
42
-0.99968620115103835
0
LWPOLYLINE
5
151
100
AcDbEntity
8
0
100
AcDbPolyline
90
4
70
1
43
0.0
10
143.99170848638701
20
63.601146634500914
10
133.67527230132333
20
25.099682637124477
42
-1.0003138973483501
10
131.71941811110338
20
25.62441015616556
10
142.06001948457782
20
64.119390981419457
42
-0.99968620115245299
0
LWPOLYLINE
5
152
100
AcDbEntity
8
0
100
AcDbPolyline
90
4
70
1
43
0.0
10
163.1479895396748
20
25.62441015616556
10
173.48859091314918
20
64.119390981419286
42
-0.99968620115254125
10
175.42027991495843
20
63.601146634500914
10
165.10384372989475
20
25.099682637124477
42
-1.0003138973483501
0
LWPOLYLINE
5
153
100
AcDbEntity
8
0
100
AcDbPolyline
90
4
70
1
43
0.0
10
151.84885134352984
20
63.601146634500914
10
141.53241515846616
20
25.099682637124477
42
-1.0003138973483501
10
139.57656096824621
20
25.62441015616556
10
149.91716234172065
20
64.119390981419457
42
-0.99968620115245299
0
LWPOLYLINE
5
154
100
AcDbEntity
8
0
100
AcDbPolyline
90
4
70
1
43
0.0
10
120.42027991495843
20
63.601146634500914
10
110.10384372989475
20
25.099682637124477
42
-1.0003138973483501
10
108.1479895396748
20
25.62441015616556
10
118.48859091314924
20
64.119390981419457
42
-0.99968620115245299
0
LWPOLYLINE
5
155
100
AcDbEntity
8
0
100
AcDbPolyline
90
4
70
1
43
0.0
10
39.097616814752662
20
64.076789993472758
10
46.019172154805162
20
24.822699032454068
42
-1.000313897351004
10
44.02480683991687
20
24.471683970939146
10
37.127892505227713
20
63.730111832507284
42
-0.99968620115103835
0
LWPOLYLINE
5
156
100
AcDbEntity
8
0
100
AcDbPolyline
90
4
70
1
43
0.0
10
10.526188243324093
20
64.076789993472758
10
17.447743583376585
20
24.822699032454068
42
-1.000313897351004
10
15.453378268488294
20
24.471683970939146
10
8.5564639337991437
20
63.730111832507284
42
-0.99968620115103835
0
CIRCLE
5
157
100
AcDbEntity
8
0
100
AcDbCircle
10
3.9588709720322801
20
75.549799089877112
30
0
40
1.5000000000000033
210
-0
220
0
230
1
0
CIRCLE
5
158
100
AcDbEntity
8
0
100
AcDbCircle
10
163.98029697799194
20
75.290629781705121
30
0
40
1.4999999999999858
210
-0
220
0
230
1
0
CIRCLE
5
159
100
AcDbEntity
8
0
100
AcDbCircle
10
3.9573545656028641
20
8.2383706995359987
30
0
40
1.5000000000000004
210
-0
220
0
230
1
0
CIRCLE
5
160
100
AcDbEntity
8
0
100
AcDbCircle
10
164.23445659494752
20
8.2433627492567894
30
0
40
1.4999999999999858
210
-0
220
0
230
1
0
ENDSEC
0
SECTION
2
OBJECTS
0
DICTIONARY
5
C
100
AcDbDictionary
3
ACAD_GROUP
350
D
3
ACAD_MLINESTYLE
350
17
0
DICTIONARY
5
D
100
AcDbDictionary
0
DICTIONARY
5
1A
330
C
100
AcDbDictionary
0
DICTIONARY
5
17
100
AcDbDictionary
0
ENDSEC
0
EOF
