0
SECTION
2
HEADER
9
$INSUNITS
70
4
9
$ACADVER
1
AC1014
9
$HANDSEED
5
FFFF
0
ENDSEC
0
SECTION
2
TABLES
0
TABLE
2
VPORT
5
8
100
AcDbSymbolTable
0
ENDTAB
0
TABLE
2
LTYPE
5
5
100
AcDbSymbolTable
0
LTYPE
5
14
100
AcDbSymbolTableRecord
100
AcDbLinetypeTableRecord
2
BYBLOCK
70
0
0
LTYPE
5
15
100
AcDbSymbolTableRecord
100
AcDbLinetypeTableRecord
2
BYLAYER
70
0
0
ENDTAB
0
TABLE
2
LAYER
5
2
100
AcDbSymbolTable
70
2
0
LAYER
5
50
100
AcDbSymbolTableRecord
100
AcDbLayerTableRecord
2
0
70
0
6
CONTINUOUS
0
ENDTAB
0
TABLE
2
STYLE
5
3
100
AcDbSymbolTable
70
1
0
STYLE
5
11
100
AcDbSymbolTableRecord
100
AcDbTextStyleTableRecord
2
STANDARD
70
0
0
ENDTAB
0
TABLE
2
VIEW
5
6
100
AcDbSymbolTable
70
0
0
ENDTAB
0
TABLE
2
UCS
5
7
100
AcDbSymbolTable
70
0
0
ENDTAB
0
TABLE
2
APPID
5
9
100
AcDbSymbolTable
70
2
0
APPID
5
12
100
AcDbSymbolTableRecord
100
AcDbRegAppTableRecord
2
ACAD
70
0
0
ENDTAB
0
TABLE
2
DIMSTYLE
5
A
100
AcDbSymbolTable
70
1
0
ENDTAB
0
TABLE
2
BLOCK_RECORD
5
1
100
AcDbSymbolTable
70
1
0
BLOCK_RECORD
5
1F
100
AcDbSymbolTableRecord
100
AcDbBlockTableRecord
2
*MODEL_SPACE
0
BLOCK_RECORD
5
1B
100
AcDbSymbolTableRecord
100
AcDbBlockTableRecord
2
*PAPER_SPACE
0
ENDTAB
0
ENDSEC
0
SECTION
2
BLOCKS
0
BLOCK
5
20
100
AcDbEntity
100
AcDbBlockBegin
2
*MODEL_SPACE
0
ENDBLK
5
21
100
AcDbEntity
100
AcDbBlockEnd
0
BLOCK
5
1C
100
AcDbEntity
100
AcDbBlockBegin
2
*PAPER_SPACE
0
ENDBLK
5
1D
100
AcDbEntity
100
AcDbBlockEnd
0
ENDSEC
0
SECTION
2
ENTITIES
0
LWPOLYLINE
5
100
100
AcDbEntity
8
0
100
AcDbPolyline
90
8
70
1
43
0.0
10
-0.3000171603888302
20
-7.2001115425273152
42
0.41421356237309503
10
-7.3000171603888289
20
-0.20011154252731478
10
-174.30001716038879
20
-0.200111542527317
42
0.41421356237309503
10
-181.30001716038879
20
-7.2001115425273134
10
-181.30001716038876
20
-63.200111542527324
42
0.41421356237309503
10
-174.30001716038879
20
-70.20011154252731
10
-7.3000171603888475
20
-70.20011154252731
42
0.41421356237309581
10
-0.30001716038883686
20
-63.200111542527324
0
CIRCLE
5
101
100
AcDbEntity
8
0
100
AcDbCircle
10
-16.523288361483708
20
-37.074263900710051
30
-1.1102230246251565e-15
40
5
210
0
220
0
230
1
0
CIRCLE
5
102
100
AcDbEntity
8
0
100
AcDbCircle
10
-159.05413657375851
20
-20.200111542527331
30
0
40
5.999999999999992
210
0
220
0
230
1
0
CIRCLE
5
103
100
AcDbEntity
8
0
100
AcDbCircle
10
-95.800017160388805
20
-20.200111542527324
30
0
40
3.4999999999999947
210
0
220
0
230
1
0
CIRCLE
5
104
100
AcDbEntity
8
0
100
AcDbCircle
10
-48.999978549514005
20
-20.5994766081416
30
0
40
3.9999999999999991
210
0
220
0
230
1
0
CIRCLE
5
105
100
AcDbEntity
8
0
100
AcDbCircle
10
-73.999978549513997
20
-20.599476608141607
30
0
40
4.0000000000000062
210
0
220
0
230
1
0
CIRCLE
5
106
100
AcDbEntity
8
0
100
AcDbCircle
10
-23.999978549514005
20
-20.599476608141607
30
0
40
4
210
0
220
0
230
1
0
CIRCLE
5
107
100
AcDbEntity
8
0
100
AcDbCircle
10
-5.3000171603888369
20
-5.2001115425271482
30
0
40
1.7499999999999971
210
0
220
0
230
1
0
CIRCLE
5
108
100
AcDbEntity
8
0
100
AcDbCircle
10
-176.30001716038876
20
-5.200111542527126
30
0
40
1.7499999999999971
210
0
220
0
230
1
0
CIRCLE
5
109
100
AcDbEntity
8
0
100
AcDbCircle
10
-176.30001716038876
20
-65.200111542527338
30
0
40
1.7499999999999971
210
0
220
0
230
1
0
CIRCLE
5
110
100
AcDbEntity
8
0
100
AcDbCircle
10
-5.3000171603888369
20
-65.20011154252731
30
0
40
1.7499999999999971
210
0
220
0
230
1
0
CIRCLE
5
111
100
AcDbEntity
8
0
100
AcDbCircle
10
-130.54589774701913
20
-20.200111542527313
30
0
40
5.0000000000000044
210
0
220
0
230
1
0
CIRCLE
5
112
100
AcDbEntity
8
0
100
AcDbCircle
10
-16.523288361483708
20
-37.074263900710051
30
0
40
5
210
0
220
0
230
1
0
CIRCLE
5
113
100
AcDbEntity
8
0
100
AcDbCircle
10
-159.05413657375851
20
-20.200111542527331
30
0
40
5.999999999999992
210
0
220
0
230
1
0
CIRCLE
5
114
100
AcDbEntity
8
0
100
AcDbCircle
10
-95.800017160388805
20
-20.200111542527324
30
0
40
3.4999999999999947
210
0
220
0
230
1
0
LWPOLYLINE
5
115
100
AcDbEntity
8
0
100
AcDbPolyline
90
8
70
1
43
0.0
10
-0.3000171603888302
20
-7.2001115425273152
42
0.41421356237309503
10
-7.3000171603888289
20
-0.20011154252731478
10
-174.30001716038879
20
-0.20011154252731478
42
0.41421356237309503
10
-181.30001716038876
20
-7.2001115425273143
10
-181.30001716038879
20
-63.200111542527324
42
0.41421356237309503
10
-174.30001716038879
20
-70.20011154252731
10
-7.3000171603888298
20
-70.20011154252731
42
0.41421356237309503
10
-0.30001716038883686
20
-63.200111542527324
0
CIRCLE
5
116
100
AcDbEntity
8
0
100
AcDbCircle
10
-48.999978549514005
20
-20.5994766081416
30
0
40
3.9999999999999991
210
0
220
0
230
1
0
CIRCLE
5
117
100
AcDbEntity
8
0
100
AcDbCircle
10
-130.54589774701913
20
-20.200111542527313
30
0
40
5.0000000000000044
210
0
220
0
230
1
0
CIRCLE
5
118
100
AcDbEntity
8
0
100
AcDbCircle
10
-73.999978549513997
20
-20.599476608141607
30
0
40
4.0000000000000062
210
-0
220
0
230
1
0
CIRCLE
5
119
100
AcDbEntity
8
0
100
AcDbCircle
10
-23.999978549514005
20
-20.599476608141607
30
0
40
4
210
-0
220
0
230
1
0
CIRCLE
5
120
100
AcDbEntity
8
0
100
AcDbCircle
10
-5.3000171603888369
20
-5.2001115425271482
30
0
40
1.7499999999999971
210
0
220
0
230
1
0
CIRCLE
5
121
100
AcDbEntity
8
0
100
AcDbCircle
10
-176.30001716038876
20
-5.200111542527126
30
0
40
1.7499999999999971
210
0
220
0
230
1
0
CIRCLE
5
122
100
AcDbEntity
8
0
100
AcDbCircle
10
-176.30001716038876
20
-65.200111542527338
30
0
40
1.7499999999999971
210
0
220
0
230
1
0
CIRCLE
5
123
100
AcDbEntity
8
0
100
AcDbCircle
10
-5.3000171603888369
20
-65.20011154252731
30
0
40
1.7499999999999971
210
0
220
0
230
1
0
ENDSEC
0
SECTION
2
OBJECTS
0
DICTIONARY
5
C
100
AcDbDictionary
3
ACAD_GROUP
350
D
3
ACAD_MLINESTYLE
350
17
0
DICTIONARY
5
D
100
AcDbDictionary
0
DICTIONARY
5
1A
330
C
100
AcDbDictionary
0
DICTIONARY
5
17
100
AcDbDictionary
0
ENDSEC
0
EOF
