0
SECTION
2
HEADER
9
$INSUNITS
70
4
9
$ACADVER
1
AC1014
9
$HANDSEED
5
FFFF
0
ENDSEC
0
SECTION
2
TABLES
0
TABLE
2
VPORT
5
8
100
AcDbSymbolTable
0
ENDTAB
0
TABLE
2
LTYPE
5
5
100
AcDbSymbolTable
0
LTYPE
5
14
100
AcDbSymbolTableRecord
100
AcDbLinetypeTableRecord
2
BYBLOCK
70
0
0
LTYPE
5
15
100
AcDbSymbolTableRecord
100
AcDbLinetypeTableRecord
2
BYLAYER
70
0
0
ENDTAB
0
TABLE
2
LAYER
5
2
100
AcDbSymbolTable
70
2
0
LAYER
5
50
100
AcDbSymbolTableRecord
100
AcDbLayerTableRecord
2
0
70
0
6
CONTINUOUS
0
ENDTAB
0
TABLE
2
STYLE
5
3
100
AcDbSymbolTable
70
1
0
STYLE
5
11
100
AcDbSymbolTableRecord
100
AcDbTextStyleTableRecord
2
STANDARD
70
0
0
ENDTAB
0
TABLE
2
VIEW
5
6
100
AcDbSymbolTable
70
0
0
ENDTAB
0
TABLE
2
UCS
5
7
100
AcDbSymbolTable
70
0
0
ENDTAB
0
TABLE
2
APPID
5
9
100
AcDbSymbolTable
70
2
0
APPID
5
12
100
AcDbSymbolTableRecord
100
AcDbRegAppTableRecord
2
ACAD
70
0
0
ENDTAB
0
TABLE
2
DIMSTYLE
5
A
100
AcDbSymbolTable
70
1
0
ENDTAB
0
TABLE
2
BLOCK_RECORD
5
1
100
AcDbSymbolTable
70
1
0
BLOCK_RECORD
5
1F
100
AcDbSymbolTableRecord
100
AcDbBlockTableRecord
2
*MODEL_SPACE
0
BLOCK_RECORD
5
1B
100
AcDbSymbolTableRecord
100
AcDbBlockTableRecord
2
*PAPER_SPACE
0
ENDTAB
0
ENDSEC
0
SECTION
2
BLOCKS
0
BLOCK
5
20
100
AcDbEntity
100
AcDbBlockBegin
2
*MODEL_SPACE
0
ENDBLK
5
21
100
AcDbEntity
100
AcDbBlockEnd
0
BLOCK
5
1C
100
AcDbEntity
100
AcDbBlockBegin
2
*PAPER_SPACE
0
ENDBLK
5
1D
100
AcDbEntity
100
AcDbBlockEnd
0
ENDSEC
0
SECTION
2
ENTITIES
0
LWPOLYLINE
5
100
100
AcDbEntity
8
0
100
AcDbPolyline
90
8
70
1
43
0.0
10
-171.11677051713849
20
-7.1230961648668378
10
-171.11677051713849
20
-52.523096164866843
42
0.41421356237309503
10
-164.11677051713843
20
-59.523096164866843
10
-7.2167705171384711
20
-59.523096164866836
42
0.41421356237309542
10
-0.21677051713846152
20
-52.523096164866843
10
-0.21677051713846041
20
-7.1230961648668334
42
0.41421356237309498
10
-7.216770517138464
20
-0.12309616486683717
10
-164.11677051713843
20
-0.1230961648668405
42
0.41421356237309503
0
LWPOLYLINE
5
101
100
AcDbEntity
8
0
100
AcDbPolyline
90
4
70
1
43
0.0
10
-86.666770517138474
20
-19.323096164866833
42
0.51162790697674421
10
-108.16677051713846
20
-19.323096164866836
10
-108.16677051713846
20
-40.32309616486684
42
0.51162790697674432
10
-86.66677051713846
20
-40.32309616486684
0
LWPOLYLINE
5
102
100
AcDbEntity
8
0
100
AcDbPolyline
90
4
70
1
43
0.0
10
-56.66677051713846
20
-40.32309616486684
42
0.51162790697674398
10
-35.16677051713846
20
-40.323096164866847
10
-35.16677051713846
20
-19.323096164866836
42
0.51162790697674421
10
-56.666770517138445
20
-19.323096164866833
0
LWPOLYLINE
5
103
100
AcDbEntity
8
0
100
AcDbPolyline
90
4
70
1
43
0.0
10
-138.16677051713845
20
-19.323096164866826
42
0.51162790697674421
10
-159.66677051713845
20
-19.32309616486684
10
-159.66677051713847
20
-40.323096164866826
42
0.51162790697674443
10
-138.16677051713845
20
-40.32309616486684
0
LWPOLYLINE
5
104
100
AcDbEntity
8
0
100
AcDbPolyline
90
4
70
1
43
0.0
10
-114.66677051713847
20
-19.323096164866833
42
0.51162790697674421
10
-136.16677051713847
20
-19.323096164866836
10
-136.16677051713847
20
-40.32309616486684
42
0.51162790697674432
10
-114.66677051713846
20
-40.32309616486684
0
LWPOLYLINE
5
105
100
AcDbEntity
8
0
100
AcDbPolyline
90
4
70
1
43
0.0
10
-33.166770517138453
20
-40.32309616486684
42
0.51162790697674421
10
-11.666770517138453
20
-40.32309616486684
10
-11.666770517138453
20
-19.323096164866836
42
0.51162790697674421
10
-33.166770517138445
20
-19.323096164866833
0
LWPOLYLINE
5
106
100
AcDbEntity
8
0
100
AcDbPolyline
90
4
70
1
43
0.0
10
-63.16677051713846
20
-19.323096164866836
42
0.51162790697674443
10
-84.66677051713846
20
-19.323096164866836
10
-84.66677051713846
20
-40.32309616486684
42
0.51162790697674432
10
-63.16677051713846
20
-40.32309616486684
0
CIRCLE
5
107
100
AcDbEntity
8
0
100
AcDbCircle
10
-59.91677051713846
20
-11.85088068481474
30
0
40
3.5000000000000049
210
0
220
0
230
1
0
CIRCLE
5
108
100
AcDbEntity
8
0
100
AcDbCircle
10
-111.41677051713845
20
-11.85088068481474
30
0
40
3.5000000000000004
210
0
220
0
230
1
0
CIRCLE
5
109
100
AcDbEntity
8
0
100
AcDbCircle
10
-59.91677051713846
20
-11.85088068481474
30
0
40
3.5000000000000049
210
0
220
0
230
1
0
CIRCLE
5
110
100
AcDbEntity
8
0
100
AcDbCircle
10
-111.41677051713845
20
-11.85088068481474
30
0
40
3.5000000000000004
210
0
220
0
230
1
0
LWPOLYLINE
5
111
100
AcDbEntity
8
0
100
AcDbPolyline
90
8
70
1
43
0.0
10
-164.11677051713843
20
-59.523096164866836
10
-7.2167705171384711
20
-59.523096164866836
42
0.41421356237309481
10
-0.21677051713846041
20
-52.523096164866843
10
-0.21677051713846152
20
-7.1230961648668352
42
0.41421356237309476
10
-7.2167705171384622
20
-0.1230961648668405
10
-164.11677051713843
20
-0.12309616486683717
42
0.41421356237309281
10
-171.11677051713849
20
-7.1230961648668378
10
-171.11677051713843
20
-52.523096164866843
42
0.41421356237309281
0
LWPOLYLINE
5
112
100
AcDbEntity
8
0
100
AcDbPolyline
90
4
70
1
43
0.0
10
-63.16677051713846
20
-40.32309616486684
10
-63.166770517138467
20
-19.323096164866833
42
0.51162790697674443
10
-84.66677051713846
20
-19.32309616486684
10
-84.66677051713846
20
-40.32309616486684
42
0.51162790697674432
0
LWPOLYLINE
5
113
100
AcDbEntity
8
0
100
AcDbPolyline
90
4
70
1
43
0.0
10
-86.66677051713846
20
-40.32309616486684
10
-86.66677051713846
20
-19.323096164866833
42
0.51162790697674443
10
-108.16677051713846
20
-19.32309616486684
10
-108.16677051713846
20
-40.32309616486684
42
0.51162790697674432
0
LWPOLYLINE
5
114
100
AcDbEntity
8
0
100
AcDbPolyline
90
4
70
1
43
0.0
10
-33.166770517138453
20
-19.323096164866833
10
-33.16677051713846
20
-40.32309616486684
42
0.5116279069767441
10
-11.666770517138456
20
-40.323096164866847
10
-11.666770517138454
20
-19.323096164866833
42
0.51162790697674432
0
LWPOLYLINE
5
115
100
AcDbEntity
8
0
100
AcDbPolyline
90
4
70
1
43
0.0
10
-56.666770517138445
20
-19.323096164866833
10
-56.66677051713846
20
-40.32309616486684
42
0.51162790697674398
10
-35.16677051713846
20
-40.323096164866847
10
-35.16677051713846
20
-19.323096164866833
42
0.51162790697674421
0
LWPOLYLINE
5
116
100
AcDbEntity
8
0
100
AcDbPolyline
90
4
70
1
43
0.0
10
-114.66677051713846
20
-40.32309616486684
10
-114.66677051713847
20
-19.323096164866833
42
0.51162790697674432
10
-136.16677051713847
20
-19.32309616486684
10
-136.16677051713847
20
-40.32309616486684
42
0.51162790697674432
0
LWPOLYLINE
5
117
100
AcDbEntity
8
0
100
AcDbPolyline
90
4
70
1
43
0.0
10
-138.16677051713845
20
-40.32309616486684
10
-138.16677051713847
20
-19.323096164866833
42
0.51162790697674398
10
-159.66677051713845
20
-19.32309616486684
10
-159.66677051713847
20
-40.32309616486684
42
0.51162790697674432
0
ENDSEC
0
SECTION
2
OBJECTS
0
DICTIONARY
5
C
100
AcDbDictionary
3
ACAD_GROUP
350
D
3
ACAD_MLINESTYLE
350
17
0
DICTIONARY
5
D
100
AcDbDictionary
0
DICTIONARY
5
1A
330
C
100
AcDbDictionary
0
DICTIONARY
5
17
100
AcDbDictionary
0
ENDSEC
0
EOF
